<?xml version="1.0" encoding="UTF-8"?>
<svg version="1.1" xmlns="http://www.w3.org/2000/svg" width="128" height="128">
<path d="M0 0 C0.78383057 0.00572021 1.56766113 0.01144043 2.37524414 0.01733398 C17.33431637 0.47110218 29.23395745 8.92897321 40.375 18.1875 C40.93574219 18.6510791 41.49648437 19.1146582 42.07421875 19.59228516 C44.86956876 21.98399626 47.00046491 24.02025475 48.3125 27.5 C36.9626448 39.90565569 20.86141659 52.38552867 3.5078125 53.71484375 C-6.40915112 54.0302688 -14.13188412 52.25439657 -21.99609375 46.09765625 C-23.81918838 44.37561074 -25.24291922 42.54538502 -26.6875 40.5 C-27.6709496 41.93457328 -28.64910921 43.37277406 -29.625 44.8125 C-30.44291016 46.01326172 -30.44291016 46.01326172 -31.27734375 47.23828125 C-32.82587326 49.5258143 -32.82587326 49.5258143 -33.6875 52.5 C-36.6575 51.84 -39.6275 51.18 -42.6875 50.5 C-40.67734243 42.71063941 -37.17845834 37.37567516 -31.6875 31.5 C-31.0275 31.17 -30.3675 30.84 -29.6875 30.5 C-29.36914265 28.21424785 -29.36914265 28.21424785 -29.3125 25.5 C-28.60628559 16.56233563 -25.84520675 10.89346763 -19.078125 5.0078125 C-13.01421611 1.18319023 -7.10433604 -0.06105108 0 0 Z M-16.38671875 14.11328125 C-19.16396878 17.7022204 -20.35196968 20.91441899 -20.6875 25.5 C-18.9859375 25.0359375 -18.9859375 25.0359375 -17.25 24.5625 C-9.86073386 22.88744128 -2.2313973 22.82912526 5.3125 22.5 C5.3125 25.14 5.3125 27.78 5.3125 30.5 C4.56226562 30.47679688 3.81203125 30.45359375 3.0390625 30.4296875 C-4.21379717 30.30180332 -12.04117836 30.17683918 -18.6875 33.5 C-17.33102598 37.93936951 -15.51941061 39.9156882 -11.6875 42.5 C-5.03181876 45.7238456 2.82844962 45.48688849 9.95703125 43.91796875 C19.61344412 40.41091333 29.30891271 33.9503452 36.3125 26.5 C25.93670885 17.00351318 12.80674593 8.03443052 -1.69921875 8.2265625 C-7.20971157 8.7307906 -12.30740987 10.24028224 -16.38671875 14.11328125 Z " fill="#FFFFFF" transform="translate(58.6875,-0.5)"/>
<path d="M0 0 C3 1 3 1 4.38671875 3.58203125 C4.81597656 4.64808594 5.24523437 5.71414062 5.6875 6.8125 C6.12449219 7.87082031 6.56148437 8.92914063 7.01171875 10.01953125 C8 13 8 13 8 17 C9.0209375 17.309375 9.0209375 17.309375 10.0625 17.625 C15.93404266 20.37338167 20.68687081 24.54403274 23.33984375 30.5390625 C25.80770335 39.73877581 24.41524852 48.70983058 20 57 C19.46375 58.010625 18.9275 59.02125 18.375 60.0625 C8.08045768 72.79522339 -7.438029 80.43456986 -23 85 C-25.86328125 85.125 -25.86328125 85.125 -28 85 C-28.48301203 83.29274992 -28.96121958 81.58414026 -29.4375 79.875 C-29.83775391 78.44800781 -29.83775391 78.44800781 -30.24609375 76.9921875 C-33.77852541 62.97227739 -34.65477707 44.19177047 -28 31 C-22.94224919 22.60029232 -16.49821275 16.7552743 -7 14.125 C-5.33749468 13.73196206 -3.67201461 13.35038541 -2 13 C-3.485 8.545 -3.485 8.545 -5 4 C-2.6875 1.9375 -2.6875 1.9375 0 0 Z M-16.76953125 30.16015625 C-26.23565714 43.9562862 -24.95504059 59.11665684 -22 75 C-8.63844672 70.68895776 6.22802658 64.84582773 12.9375 51.75 C15.28214927 46.63151143 16.38640659 42.69949714 16 37 C14.22120932 32.22535133 11.98722631 30.04751994 8 27 C7.54560547 28.25103516 7.54560547 28.25103516 7.08203125 29.52734375 C4.53726901 36.36296664 1.78820981 42.76154384 -2 49 C-4.66666667 48.33333333 -7.33333333 47.66666667 -10 47 C-9.44570312 46.10539062 -8.89140625 45.21078125 -8.3203125 44.2890625 C-4.12147219 37.34171526 -0.76073884 31.25401639 0 23 C-7.20554103 22.24942281 -12.14110531 24.51000273 -16.76953125 30.16015625 Z " fill="#FFFFFF" transform="translate(104,43)"/>
<path d="M0 0 C17.86051065 4.32449372 37.64999976 12.07473366 48.0390625 28.2109375 C52.31382235 36.16963674 53.83192335 45.56721168 51.3203125 54.38671875 C50.5 56.3125 50.5 56.3125 49 59 C52.3 59.33 55.6 59.66 59 60 C59 62.97 59 65.94 59 69 C57.12475253 68.85738409 55.24981036 68.71075143 53.375 68.5625 C52.27285156 68.47742188 51.17070313 68.39234375 50.03515625 68.3046875 C47 68 47 68 43.8125 67.1875 C40.64884513 66.97658968 39.69822584 67.52225426 36.9375 68.9375 C30.30302871 72.13187506 23.21763145 72.27291519 16.19140625 70.15234375 C7.33234721 66.17453185 1.44054398 58.9845485 -2 50 C-4.36781864 43.53534407 -4.3444353 37.33906661 -4.3125 30.5 C-4.31048584 29.34757812 -4.30847168 28.19515625 -4.30639648 27.0078125 C-4.20241031 18.14096736 -4.05838118 8.11676236 0 0 Z M6 11 C3.26671998 23.88546293 1.23585098 39.39308496 8.32421875 51.20703125 C9.77883679 53.26487671 11.30803567 55.13386287 13 57 C13.4640625 57.51820312 13.928125 58.03640625 14.40625 58.5703125 C17.91616196 61.9827269 21.16993484 62.78392318 25.875 63.0859375 C28.57519647 62.97673838 30.63721171 62.29572261 33 61 C32.175 60.113125 31.35 59.22625 30.5 58.3125 C19 44.9416866 19 44.9416866 19 39 C20.98 38.01 22.96 37.02 25 36 C25.58007812 36.95261719 26.16015625 37.90523437 26.7578125 38.88671875 C27.54633273 40.15398341 28.33542597 41.42089165 29.125 42.6875 C29.50398438 43.31333984 29.88296875 43.93917969 30.2734375 44.58398438 C33.01505035 48.94771817 35.89016965 51.88486772 40 55 C42.76976951 52.66558721 43.51781217 51.01921945 43.9375 47.4375 C44.45586579 39.86053622 41.68268261 33.77408603 37.0625 27.875 C29.38407728 19.75359136 18.44761544 14.59190746 8 11 C7.34 11 6.68 11 6 11 Z " fill="#FFFFFF" transform="translate(4,53)"/>
</svg>
