<?xml version="1.0" encoding="UTF-8"?>
<svg version="1.1" xmlns="http://www.w3.org/2000/svg" width="128" height="128">
<path d="M0 0 C1.15628906 0.00607269 1.15628906 0.00607269 2.3359375 0.01226807 C3.12742187 0.01035461 3.91890625 0.00844116 4.734375 0.00646973 C6.4088574 0.00510789 8.08335035 0.00880425 9.7578125 0.01715088 C12.32576131 0.02785067 14.89301053 0.01725582 17.4609375 0.00445557 C19.08593905 0.00577716 20.71094016 0.00833956 22.3359375 0.01226807 C23.10679688 0.0082196 23.87765625 0.00417114 24.671875 0 C30.10601618 0.04797174 30.10601618 0.04797174 32.3359375 2.27789307 C32.6423234 5.01224268 32.8472711 7.66069128 32.9609375 10.40289307 C33.01894531 11.53404541 33.01894531 11.53404541 33.078125 12.68804932 C33.17244781 14.55092491 33.25528412 16.41437561 33.3359375 18.27789307 C33.70332031 17.62304932 34.07070313 16.96820557 34.44921875 16.29351807 C36.3359375 14.27789307 36.3359375 14.27789307 39.25390625 13.88726807 C40.33285156 13.93367432 41.41179688 13.98008057 42.5234375 14.02789307 C43.61011719 14.06398682 44.69679687 14.10008057 45.81640625 14.13726807 C47.06357422 14.20687744 47.06357422 14.20687744 48.3359375 14.27789307 C48.2946875 13.16414307 48.2534375 12.05039307 48.2109375 10.90289307 C48.3359375 7.27789307 48.3359375 7.27789307 50.3359375 5.27789307 C52.91796875 5.019104 52.91796875 5.019104 56.1484375 5.01226807 C57.30601563 5.00968994 58.46359375 5.00711182 59.65625 5.00445557 C60.87054688 5.01218994 62.08484375 5.01992432 63.3359375 5.02789307 C64.55023438 5.02015869 65.76453125 5.01242432 67.015625 5.00445557 C68.75199219 5.00832275 68.75199219 5.00832275 70.5234375 5.01226807 C71.58949219 5.01452393 72.65554687 5.01677979 73.75390625 5.019104 C76.3359375 5.27789307 76.3359375 5.27789307 78.3359375 7.27789307 C78.65478516 9.43267822 78.65478516 9.43267822 78.75 12.06695557 C78.78867188 13.00797119 78.82734375 13.94898682 78.8671875 14.91851807 C78.898125 15.90336182 78.9290625 16.88820557 78.9609375 17.90289307 C78.99960938 18.89547119 79.03828125 19.88804932 79.078125 20.91070557 C79.1725689 23.36624691 79.25813625 25.82177716 79.3359375 28.27789307 C79.36171875 27.38586182 79.3875 26.49383057 79.4140625 25.57476807 C79.49914062 23.81906494 79.49914062 23.81906494 79.5859375 22.02789307 C79.63234375 20.86773682 79.67875 19.70758057 79.7265625 18.51226807 C80.3359375 15.27789307 80.3359375 15.27789307 81.75390625 12.88336182 C85.80565183 10.36404649 89.72747947 10.73747928 94.3984375 10.84039307 C95.30916016 10.83330322 96.21988281 10.82621338 97.15820312 10.81890869 C103.80549747 10.88258948 103.80549747 10.88258948 106.09155273 12.58624268 C108.18772056 15.43583005 107.76023814 17.88348794 107.3359375 21.27789307 C105.08087917 23.58576307 103.76621288 24.23282232 100.5390625 24.57086182 C97.8046875 24.47320557 95.0703125 24.37554932 92.3359375 24.27789307 C92.34781097 25.08648773 92.35968445 25.8950824 92.37191772 26.72817993 C92.45033201 36.42700908 91.96478419 46.0196572 91.3125 55.69195557 C91.20503413 57.32145172 91.09772722 58.95095837 90.99057007 60.58047485 C90.76683688 63.96405383 90.53939539 67.3473594 90.30957031 70.73052979 C90.01582716 75.06295931 89.73438602 79.39609513 89.45595741 83.72953224 C89.23881034 87.08078304 89.01382825 90.4314738 88.78660202 93.7820549 C88.67940429 95.38064806 88.57496763 96.97942892 88.47337723 98.57838821 C88.33108938 100.80389766 88.17791538 103.02840212 88.02197266 105.25299072 C87.93758942 106.51648346 87.85320618 107.7799762 87.76626587 109.08175659 C87.37250065 112.00633113 86.95923598 113.84255623 85.3359375 116.27789307 C82.45359053 117.71906655 80.5317265 117.64693995 77.3359375 117.27789307 C74.84375 115.22320557 74.84375 115.22320557 72.4609375 112.40289307 C71.60757813 111.40515869 70.75421875 110.40742432 69.875 109.37945557 C69.02633143 108.3475004 68.17993191 107.31367453 67.3359375 106.27789307 C66.55992188 105.33687744 65.78390625 104.39586182 64.984375 103.42633057 C62.29766646 100.11435167 59.70229244 96.82742547 57.3359375 93.27789307 C52.66261081 93.85896905 48.31891724 94.75236227 43.81640625 96.12554932 C42.62982422 96.48326416 41.44324219 96.840979 40.22070312 97.20953369 C38.39055664 97.76930908 38.39055664 97.76930908 36.5234375 98.34039307 C34.08015329 99.08366985 31.6361773 99.82467772 29.19140625 100.56304932 C28.11528076 100.89184082 27.03915527 101.22063232 25.93041992 101.55938721 C23.3359375 102.27789307 23.3359375 102.27789307 21.3359375 102.27789307 C21.38234375 102.85797119 21.42875 103.43804932 21.4765625 104.03570557 C21.73853307 109.70549713 21.17615896 112.81493299 17.3359375 117.27789307 C12.902918 121.27842286 9.57725352 122.66274695 3.52734375 122.55133057 C-2.0253208 121.85848472 -5.66765555 119.49849159 -9.1640625 115.21539307 C-11.45266549 110.47471544 -11.45168824 105.40518217 -10.6640625 100.27789307 C-9.27839777 97.01445838 -7.16410224 94.77793281 -4.6640625 92.27789307 C-5.0078317 86.58399966 -6.34888945 81.56120126 -8.16796875 76.18414307 C-8.66697586 74.64278694 -9.16499031 73.10110916 -9.66210938 71.55914307 C-10.43744833 69.17783185 -11.21928616 66.79947783 -12.01928711 64.42633057 C-15.72495543 53.37745725 -17.44880375 43.97584943 -16.6640625 32.27789307 C-13.6940625 32.27789307 -10.7240625 32.27789307 -7.6640625 32.27789307 C-7.67453613 31.37957764 -7.68500977 30.48126221 -7.69580078 29.5557251 C-7.7298572 26.22724859 -7.75494868 22.89895684 -7.77392578 19.57037354 C-7.78399213 18.1289376 -7.7976463 16.68752211 -7.81494141 15.24615479 C-7.83916262 13.17595373 -7.85053891 11.1060223 -7.859375 9.03570557 C-7.86984863 7.78934326 -7.88032227 6.54298096 -7.89111328 5.2588501 C-7.47639824 -0.18595705 -4.83277355 0.04266297 0 0 Z M-2.6640625 5.27789307 C-2.6640625 14.18789307 -2.6640625 23.09789307 -2.6640625 32.27789307 C-2.0040625 32.27789307 -1.3440625 32.27789307 -0.6640625 32.27789307 C-0.3340625 25.34789307 -0.0040625 18.41789307 0.3359375 11.27789307 C3.6359375 10.94789307 6.9359375 10.61789307 10.3359375 10.27789307 C10.6659375 17.53789307 10.9959375 24.79789307 11.3359375 32.27789307 C11.9959375 32.27789307 12.6559375 32.27789307 13.3359375 32.27789307 C13.6659375 25.34789307 13.9959375 18.41789307 14.3359375 11.27789307 C17.6359375 10.94789307 20.9359375 10.61789307 24.3359375 10.27789307 C24.6659375 17.53789307 24.9959375 24.79789307 25.3359375 32.27789307 C25.9959375 32.27789307 26.6559375 32.27789307 27.3359375 32.27789307 C27.3359375 23.36789307 27.3359375 14.45789307 27.3359375 5.27789307 C17.4359375 5.27789307 7.5359375 5.27789307 -2.6640625 5.27789307 Z M53.3359375 10.27789307 C53.3359375 11.59789307 53.3359375 12.91789307 53.3359375 14.27789307 C54.6353125 14.42226807 55.9346875 14.56664307 57.2734375 14.71539307 C61.2109375 15.15289307 61.2109375 15.15289307 62.3359375 16.27789307 C62.57272466 18.97025083 62.75791775 21.64287462 62.8984375 24.34039307 C62.94162109 25.09900635 62.98480469 25.85761963 63.02929688 26.63922119 C63.13567383 28.51854744 63.23633684 30.3981955 63.3359375 32.27789307 C66.6359375 32.27789307 69.9359375 32.27789307 73.3359375 32.27789307 C73.3359375 25.01789307 73.3359375 17.75789307 73.3359375 10.27789307 C66.7359375 10.27789307 60.1359375 10.27789307 53.3359375 10.27789307 Z M4.3359375 15.27789307 C4.3359375 20.88789307 4.3359375 26.49789307 4.3359375 32.27789307 C4.9959375 32.27789307 5.6559375 32.27789307 6.3359375 32.27789307 C6.3359375 26.66789307 6.3359375 21.05789307 6.3359375 15.27789307 C5.6759375 15.27789307 5.0159375 15.27789307 4.3359375 15.27789307 Z M18.3359375 15.27789307 C18.3359375 20.88789307 18.3359375 26.49789307 18.3359375 32.27789307 C18.9959375 32.27789307 19.6559375 32.27789307 20.3359375 32.27789307 C20.3359375 26.66789307 20.3359375 21.05789307 20.3359375 15.27789307 C19.6759375 15.27789307 19.0159375 15.27789307 18.3359375 15.27789307 Z M85.3359375 17.27789307 C85.06118099 19.9203089 84.84747364 22.54452177 84.67163086 25.19415283 C84.61296341 26.02335236 84.55429596 26.85255188 84.49385071 27.70687866 C84.30011101 30.46073198 84.11293581 33.21499126 83.92578125 35.96929932 C83.7930912 37.87361917 83.65999404 39.7779107 83.52650452 41.68217468 C83.17555839 46.70428294 82.83016748 51.72675864 82.48590088 56.74932861 C82.13390491 61.87040991 81.77669954 66.99112745 81.41992188 72.11187744 C80.72013825 82.16686529 80.02621807 92.22224867 79.3359375 102.27789307 C78.0159375 102.27789307 76.6959375 102.27789307 75.3359375 102.27789307 C73.24665968 100.15359942 71.42511031 98.0997884 69.5859375 95.77789307 C69.07933594 95.157854 68.57273437 94.53781494 68.05078125 93.89898682 C66.80183331 92.36725821 65.56746023 90.82366642 64.3359375 89.27789307 C63.3459375 90.26789307 63.3459375 90.26789307 62.3359375 91.27789307 C63.06039062 92.12351807 63.78484375 92.96914307 64.53125 93.84039307 C69.66392278 99.85467579 74.68972994 105.87366103 79.3359375 112.27789307 C80.8209375 111.78289307 80.8209375 111.78289307 82.3359375 111.27789307 C83.11983848 99.87331002 83.90227815 88.46862775 84.68284607 77.06381607 C85.04533046 71.76826334 85.40832045 66.47274626 85.77246094 61.17730713 C86.12377715 56.06809185 86.47377175 50.95878761 86.82284546 45.84941864 C86.95633763 43.89893102 87.09030811 41.94847607 87.22476196 39.9980545 C87.41282176 37.26882752 87.59918938 34.53948991 87.78515625 31.81011963 C87.84126068 31.00163574 87.89736511 30.19315186 87.95516968 29.36016846 C88.18345966 25.98705074 88.3359375 22.66075544 88.3359375 19.27789307 C92.6259375 19.27789307 96.9159375 19.27789307 101.3359375 19.27789307 C101.6659375 18.28789307 101.9959375 17.29789307 102.3359375 16.27789307 C99.69003736 16.25104628 97.04440654 16.2311295 94.3984375 16.21539307 C93.26631836 16.20282471 93.26631836 16.20282471 92.11132812 16.19000244 C88.42401986 15.81263707 88.42401986 15.81263707 85.3359375 17.27789307 Z M38.3359375 19.27789307 C38.3359375 23.56789307 38.3359375 27.85789307 38.3359375 32.27789307 C44.9359375 32.27789307 51.5359375 32.27789307 58.3359375 32.27789307 C58.3359375 27.98789307 58.3359375 23.69789307 58.3359375 19.27789307 C51.7359375 19.27789307 45.1359375 19.27789307 38.3359375 19.27789307 Z M-12.6640625 37.27789307 C-12.0194702 45.0875089 -12.0194702 45.0875089 -10.35717773 52.3604126 C-10.09698349 53.22054962 -9.83678925 54.08068665 -9.56871033 54.96688843 C-9.28951248 55.85584808 -9.01031464 56.74480774 -8.72265625 57.66070557 C-8.43552261 58.60098602 -8.14838898 59.54126648 -7.85255432 60.51004028 C-6.94431981 63.47710131 -6.02319471 66.43996972 -5.1015625 69.40289307 C-4.47895677 71.42867033 -3.85720386 73.45470991 -3.23632812 75.48101807 C-1.72207474 80.4163949 -0.19625701 85.34805803 1.3359375 90.27789307 C2.41488281 90.25211182 3.49382813 90.22633057 4.60546875 90.19976807 C8.93072083 90.29034926 11.52652168 91.2653715 15.3359375 93.27789307 C15.92181641 94.00202393 16.50769531 94.72615479 17.11132812 95.472229 C19.26719434 97.64849527 19.26719434 97.64849527 22.47070312 97.01324463 C23.71529297 96.65198486 24.95988281 96.2907251 26.2421875 95.91851807 C27.28046692 95.62754242 27.28046692 95.62754242 28.33972168 95.33068848 C30.67882795 94.66880451 33.00654174 93.97312022 35.3359375 93.27789307 C37.05149051 92.78558815 38.76765563 92.29541209 40.484375 91.80718994 C45.94437036 90.24580185 51.39045439 88.63902809 56.8359375 87.02789307 C58.73819362 86.46769957 60.6405369 85.90780196 62.54296875 85.34820557 C67.14163372 83.99483272 71.73911185 82.63749954 76.3359375 81.27789307 C76.65501289 77.88263608 76.9654786 74.48667743 77.2734375 71.09039307 C77.36044922 70.16935791 77.44746094 69.24832275 77.53710938 68.29937744 C78.46531021 57.95165707 78.84006051 47.69130981 79.3359375 37.27789307 C48.9759375 37.27789307 18.6159375 37.27789307 -12.6640625 37.27789307 Z M70.3359375 87.27789307 C71.62893444 90.16227086 72.99535113 92.15008728 75.3359375 94.27789307 C75.6659375 91.63789307 75.9959375 88.99789307 76.3359375 86.27789307 C74.17959714 86.27789307 72.41147398 86.72441667 70.3359375 87.27789307 Z M-4.5390625 98.90289307 C-6.31304737 102.64797223 -6.32396679 106.21694361 -5.6640625 110.27789307 C-3.59393411 113.75275144 -1.54771938 116.02141584 2.3359375 117.27789307 C6.32684331 117.798446 8.03117113 117.44785893 11.5859375 115.46539307 C14.48135989 113.39109643 14.48135989 113.39109643 16.3359375 110.27789307 C16.80566584 105.50232165 16.80642978 103.21887763 14.6484375 98.90289307 C12.21930466 96.14549903 10.86205783 95.15942315 7.3359375 94.27789307 C2.32493371 94.27789307 -0.75268554 95.62136636 -4.5390625 98.90289307 Z " fill="#FFFFFF" transform="translate(18.6640625,2.72210693359375)"/>
<path d="M0 0 C2 2 2 2 2.3125 5.4375 C2 9 2 9 0.875 10.9375 C-1.88980433 12.50422245 -3.88188517 12.38976435 -7 12 C-8.875 10.9375 -8.875 10.9375 -10 9 C-10.4375 5.5 -10.4375 5.5 -10 2 C-7.00303875 -1.6885677 -4.34072074 -1.22672543 0 0 Z M-5 4 C-5 4.99 -5 5.98 -5 7 C-4.34 7 -3.68 7 -3 7 C-3.33 6.01 -3.66 5.02 -4 4 C-4.33 4 -4.66 4 -5 4 Z " fill="#FFFFFF" transform="translate(28,103)"/>
</svg>
