<?xml version="1.0" encoding="UTF-8"?>
<svg version="1.1" xmlns="http://www.w3.org/2000/svg" width="128" height="128">
<path d="M0 0 C2.69456452 2.69456452 3.20805732 5.69132124 4.1640625 9.2734375 C4.36099701 9.99359039 4.55793152 10.71374329 4.76083374 11.45571899 C5.17585683 12.97968378 5.58752523 14.50456553 5.99609375 16.03027344 C6.62130943 18.3612406 7.25902477 20.68851733 7.8984375 23.015625 C8.30023225 24.49719181 8.70129804 25.97895653 9.1015625 27.4609375 C9.2921524 28.15585297 9.48274231 28.85076843 9.67910767 29.56674194 C10.55782707 32.8742538 11 35.54377765 11 39 C11.85754883 38.98428955 12.71509766 38.9685791 13.59863281 38.95239258 C16.78920247 38.90117577 19.97956215 38.86360688 23.17041016 38.83520508 C24.54971218 38.82014578 25.92896653 38.79969387 27.30810547 38.77368164 C29.29373403 38.73717585 31.27971618 38.72185147 33.265625 38.70703125 C34.45961914 38.6913208 35.65361328 38.67561035 36.88378906 38.65942383 C40.27828713 39.03041449 41.62258693 39.59394766 44 42 C45 44.875 45 44.875 45 48 C43.22960551 50.74716387 41.93708156 52.53145922 39 54 C38.48817997 56.53525275 38.48817997 56.53525275 38.26977539 59.6496582 C38.10433983 61.46207756 38.10433983 61.46207756 37.93556213 63.31111145 C37.88061647 63.96098337 37.82567081 64.61085529 37.76906013 65.2804203 C37.59675142 67.31144666 37.41222805 69.34102114 37.22422791 71.37065125 C36.69209804 77.14262655 36.18436548 82.91670937 35.67993164 88.69116211 C35.37076002 92.22059421 35.04895406 95.74870128 34.71984673 99.27632713 C34.53759896 101.27400593 34.37038789 103.27303803 34.2033844 105.27204895 C34.08994186 106.489785 33.97649933 107.70752106 33.85961914 108.9621582 C33.71877647 110.5697979 33.71877647 110.5697979 33.5750885 112.20991516 C32.93488719 115.31589966 32.31262289 116.83027592 30 119 C27.68530273 119.50120544 27.68530273 119.50120544 24.93359375 119.50170898 C23.90242432 119.51108994 22.87125488 119.52047089 21.80883789 119.53013611 C20.69629639 119.51890213 19.58375488 119.50766815 18.4375 119.49609375 C17.29466553 119.49754898 16.15183105 119.49900421 14.97436523 119.50050354 C12.55677747 119.49884266 10.13917934 119.4872604 7.72167969 119.46655273 C4.01451855 119.43761334 0.3087878 119.4459377 -3.3984375 119.45898438 C-5.74479864 119.45274682 -8.09115525 119.44435576 -10.4375 119.43359375 C-12.10631226 119.43799721 -12.10631226 119.43799721 -13.80883789 119.44248962 C-14.84000732 119.42980545 -15.87117676 119.41712128 -16.93359375 119.40405273 C-17.84165771 119.39864975 -18.74972168 119.39324677 -19.68530273 119.38768005 C-22 119 -22 119 -23.76766968 117.76327515 C-25.30499793 115.56359488 -25.5268032 114.05021058 -25.78369141 111.38354492 C-25.92866562 109.98014107 -25.92866562 109.98014107 -26.0765686 108.54838562 C-26.16731659 107.53597305 -26.25806458 106.52356049 -26.3515625 105.48046875 C-26.45592621 104.43031082 -26.56028992 103.38015289 -26.66781616 102.298172 C-26.9993638 98.92902852 -27.31218626 95.55842904 -27.625 92.1875 C-27.84256957 89.95886882 -28.06130676 87.7303513 -28.28125 85.50195312 C-29.33851017 74.67815408 -30.32557732 63.85528342 -31 53 C-32.65 52.34 -34.3 51.68 -36 51 C-37.45396825 44.82063492 -37.45396825 44.82063492 -35.375 41.0625 C-32.56078553 38.6185769 -31.58365803 38.80355363 -28 39 C-28.2172876 38.23856689 -28.4345752 37.47713379 -28.65844727 36.69262695 C-29.6379687 33.23572486 -30.60038407 29.77428474 -31.5625 26.3125 C-31.90474609 25.11431641 -32.24699219 23.91613281 -32.59960938 22.68164062 C-32.91865234 21.52470703 -33.23769531 20.36777344 -33.56640625 19.17578125 C-33.86490479 18.11270752 -34.16340332 17.04963379 -34.47094727 15.9543457 C-35.02217534 12.87616807 -34.98239801 10.95664643 -34 8 C-28.87131273 4.47242211 -22.3978206 3.29540723 -16.4375 1.75 C-15.40947266 1.46898437 -14.38144531 1.18796875 -13.32226562 0.8984375 C-11.83049805 0.50785156 -11.83049805 0.50785156 -10.30859375 0.109375 C-8.95979126 -0.24688965 -8.95979126 -0.24688965 -7.58374023 -0.61035156 C-4.72012186 -1.04220784 -2.76387988 -0.83684386 0 0 Z M-3 5 C-2 7 -2 7 -2 7 Z M-19.1875 7.5 C-20.27417969 7.7784375 -21.36085938 8.056875 -22.48046875 8.34375 C-23.31191406 8.5603125 -24.14335937 8.776875 -25 9 C-22.25823163 11.47428509 -22.25823163 11.47428509 -18.7109375 11.99609375 C-17.94007812 11.81175781 -17.16921875 11.62742187 -16.375 11.4375 C-15.21097656 11.18806641 -15.21097656 11.18806641 -14.0234375 10.93359375 C-11.46948744 9.75522683 -10.97992129 8.57624468 -10 6 C-13.31544299 6 -15.98001389 6.67226165 -19.1875 7.5 Z M-30 11 C-29 14 -29 14 -29 14 Z M-7 11 C-7 11.66 -7 12.32 -7 13 C-14.92 14.485 -14.92 14.485 -23 16 C-22.30458205 22.16644912 -22.30458205 22.16644912 -21.02734375 28.0625 C-20.86741943 28.65160156 -20.70749512 29.24070312 -20.54272461 29.84765625 C-20.34300049 30.55792969 -20.14327637 31.26820312 -19.9375 32 C-19.298125 34.31 -18.65875 36.62 -18 39 C-11.73 39 -5.46 39 1 39 C0.67 37.02 0.34 35.04 0 33 C-0.85271484 33.12568359 -0.85271484 33.12568359 -1.72265625 33.25390625 C-6.76635545 33.91910197 -11.00294069 33.9568837 -16 33 C-16 31.68 -16 30.36 -16 29 C-14.68 29 -13.36 29 -12 29 C-12.061875 28.2575 -12.12375 27.515 -12.1875 26.75 C-11.96419239 23.47482176 -11.30270475 22.30270475 -9 20 C-6.8125 19.25 -6.8125 19.25 -5 19 C-5.309375 19.763125 -5.61875 20.52625 -5.9375 21.3125 C-6.67893593 23.18789677 -7.36228217 25.08684652 -8 27 C-7.67 27.66 -7.34 28.32 -7 29 C-5.35 28.67 -3.7 28.34 -2 28 C-3.43884472 19.36153461 -3.43884472 19.36153461 -6 11 C-6.33 11 -6.66 11 -7 11 Z M-1 12 C0 14 0 14 0 14 Z M-29 15 C-28 17 -28 17 -28 17 Z M0 16 C1 18 1 18 1 18 Z M-28 19 C-27 21 -27 21 -27 21 Z M1 20 C2 22 2 22 2 22 Z M-27 23 C-26 25 -26 25 -26 25 Z M3 27 C4 29 4 29 4 29 Z M-25 30 C-24 32 -24 32 -24 32 Z M4 31 C5 33 5 33 5 33 Z M-24 34 C-23 36 -23 36 -23 36 Z M-32 44 C-31.67 45.65 -31.34 47.3 -31 49 C-22.03806296 49.02314078 -13.07613616 49.04092397 -4.1141758 49.05181217 C0.04694039 49.05703719 4.20803618 49.06412795 8.36914062 49.07543945 C12.38265815 49.08628184 16.39615601 49.09227972 20.40968704 49.09487724 C21.94313491 49.09672905 23.47658168 49.100345 25.01002121 49.10573006 C27.15302632 49.1129584 29.29594956 49.11399018 31.43896484 49.11352539 C32.66030121 49.115746 33.88163757 49.11796661 35.13998413 49.12025452 C37.94562629 49.19770527 37.94562629 49.19770527 40 48 C39.65213292 46.02463255 39.65213292 46.02463255 39 44 C36.20109894 42.60054947 33.89295935 42.87275475 30.76196289 42.87060547 C29.4504274 42.86745331 28.13889191 42.86430115 26.78761292 42.86105347 C25.34929369 42.86284349 23.91097476 42.8648945 22.47265625 42.8671875 C21.00296513 42.8665141 19.53327411 42.86554376 18.06358337 42.86428833 C14.98093609 42.86281262 11.89831775 42.86496156 8.81567383 42.86962891 C4.86334708 42.87532112 0.91108832 42.87204962 -3.04123592 42.86605644 C-6.07724011 42.86244316 -9.11322819 42.86359304 -12.14923286 42.86618423 C-13.60649181 42.86685164 -15.06375221 42.86603159 -16.52100945 42.86370468 C-18.55819547 42.8611662 -20.59538661 42.86572102 -22.63256836 42.87060547 C-23.79235703 42.87140106 -24.95214569 42.87219666 -26.14707947 42.87301636 C-29.07499202 42.87292467 -29.07499202 42.87292467 -32 44 Z M-26 53 C-25.22756489 67.46038811 -25.22756489 67.46038811 -24.0625 81.875 C-23.97750244 82.77702148 -23.89250488 83.67904297 -23.80493164 84.60839844 C-23.62853353 86.46989257 -23.45040893 88.33122396 -23.27050781 90.19238281 C-22.99496834 93.05222394 -22.72770072 95.91276573 -22.4609375 98.7734375 C-22.28694461 100.59900475 -22.11248396 102.42452748 -21.9375 104.25 C-21.85830322 105.10190918 -21.77910645 105.95381836 -21.69750977 106.83154297 C-21.36805777 111.04896919 -21.36805777 111.04896919 -20 115 C-4.49 115 11.02 115 27 115 C28.58493014 111.03767465 29.30531177 108.78806212 29.68603516 104.73828125 C29.78598785 103.71371826 29.88594055 102.68915527 29.98892212 101.63354492 C30.08796844 100.5376001 30.18701477 99.44165527 30.2890625 98.3125 C30.39721283 97.17723877 30.50536316 96.04197754 30.61679077 94.87231445 C30.84374867 92.4754282 31.06710487 90.07819855 31.28710938 87.68066406 C31.62381513 84.01290687 31.97106733 80.34626987 32.3203125 76.6796875 C32.53967898 74.34901628 32.75844907 72.01828882 32.9765625 69.6875 C33.07965729 68.59155518 33.18275208 67.49561035 33.28897095 66.36645508 C33.38261932 65.34189209 33.4762677 64.3173291 33.57275391 63.26171875 C33.65554596 62.36412842 33.73833801 61.46653809 33.82363892 60.54174805 C33.99769805 58.03317613 34 55.51460328 34 53 C14.2 53 -5.6 53 -26 53 Z " fill="#FFFFFF" transform="translate(45,9)"/>
<path d="M0 0 C1.43861294 0.08746284 2.87597508 0.19565348 4.3125 0.3125 C5.11300781 0.37050781 5.91351563 0.42851562 6.73828125 0.48828125 C9.42859984 1.09697164 10.40781971 1.76164265 12 4 C11.86292684 12.22438956 9.22814174 20.13414147 7 28 C7.94875 28.45375 8.8975 28.9075 9.875 29.375 C13 31 13 31 15 33 C14.8903654 39.24917234 13.28634103 44.97074332 11.5625 50.9375 C11.3452124 51.69554932 11.1279248 52.45359863 10.90405273 53.23461914 C9.24981902 58.75018098 9.24981902 58.75018098 7 61 C4.8359375 61.1953125 4.8359375 61.1953125 2.375 61.125 C1.55773437 61.10695312 0.74046875 61.08890625 -0.1015625 61.0703125 C-0.72804688 61.04710937 -1.35453125 61.02390625 -2 61 C-2.16604736 61.65597168 -2.33209473 62.31194336 -2.50317383 62.98779297 C-3.26100403 65.95339834 -4.03650183 68.91409918 -4.8125 71.875 C-5.07353516 72.90753906 -5.33457031 73.94007812 -5.60351562 75.00390625 C-5.86455078 75.99003906 -6.12558594 76.97617188 -6.39453125 77.9921875 C-6.74801636 79.35899658 -6.74801636 79.35899658 -7.10864258 80.75341797 C-8 83 -8 83 -11 85 C-14.44771821 85.02048149 -17.89925406 84.55037297 -21 83 C-20.42324291 74.01779081 -17.90244198 65.56816601 -15.52734375 56.93359375 C-15.07978265 55.28751766 -14.63281637 53.64127973 -14.18641663 51.99488831 C-13.01689408 47.68777234 -11.83936655 43.38288559 -10.66009521 39.07843018 C-9.45535469 34.67536253 -8.25828508 30.27021091 -7.06054688 25.86523438 C-4.71448718 17.24144579 -2.35995597 8.61999531 0 0 Z M4 5 C1.30074579 12.7575205 -0.87585961 20.6264446 -3.01171875 28.5546875 C-3.38845304 29.9471461 -3.76531172 31.33957106 -4.14228821 32.73196411 C-4.92648598 35.63104998 -5.70867218 38.53066934 -6.48950195 41.43066406 C-7.49050898 45.14744757 -8.49739881 48.8626091 -9.50586224 52.57737541 C-10.28314712 55.44364946 -11.05694436 58.3108562 -11.82972145 61.17834854 C-12.19974776 62.54940495 -12.57095418 63.92014343 -12.9433651 65.29055405 C-13.46153552 67.19907516 -13.97442423 69.10902793 -14.48706055 71.01904297 C-14.78001511 72.10442352 -15.07296967 73.18980408 -15.37480164 74.30807495 C-16.11311416 77.02644172 -16.11311416 77.02644172 -16 80 C-14.68 80 -13.36 80 -12 80 C-9.93639537 72.4419813 -7.8734864 64.88377297 -5.81103516 57.32543945 C-5.111044 54.76027945 -4.41080376 52.19518781 -3.71044922 49.63012695 C-2.04924942 43.54577534 -0.39008597 37.46089065 1.26367188 31.37451172 C2.29028064 27.59688843 3.32502893 23.82191731 4.37695312 20.05126953 C4.66539093 19.00520287 4.66539093 19.00520287 4.95965576 17.93800354 C5.43500931 16.2141765 5.91591465 14.49188277 6.39746094 12.76977539 C6.98187381 10.0833232 7.12221119 7.73872757 7 5 C6.01 5 5.02 5 4 5 Z M5 34 C2.57919742 40.9165788 0.70022388 47.87352969 -1 55 C0.98 55.33 2.96 55.66 5 56 C5.86838824 53.27464312 6.71992619 50.54583627 7.5625 47.8125 C7.80935547 47.04357422 8.05621094 46.27464844 8.31054688 45.48242188 C9.58110499 41.31284385 10.43600867 38.29082831 9 34 C7.68 34 6.36 34 5 34 Z " fill="#FFFFFF" transform="translate(105,19)"/>
<path d="M0 0 C5.34773264 -0.26224541 9.66142565 0.57860487 14.6484375 2.37109375 C15.34643463 2.61287857 16.04443176 2.85466339 16.76358032 3.10377502 C18.22581924 3.61241238 19.68629116 4.12615592 21.14501953 4.64477539 C23.3859805 5.4414034 25.63175941 6.22296506 27.87890625 7.00195312 C29.30238238 7.49914464 30.72557043 7.9971619 32.1484375 8.49609375 C32.82127777 8.73154404 33.49411804 8.96699432 34.18734741 9.20957947 C38.88198397 10.88198397 38.88198397 10.88198397 40 12 C39.88674155 18.34247345 38.24292146 23.96563589 36.25 29.9375 C35.89023071 31.07445312 35.89023071 31.07445312 35.52319336 32.234375 C33.67089228 37.53519149 33.67089228 37.53519149 30.66015625 39.62109375 C27.27607805 40.1031137 25.3369625 39.41514127 22.1875 38.125 C21.21167969 37.73570313 20.23585938 37.34640625 19.23046875 36.9453125 C18.49441406 36.63335937 17.75835937 36.32140625 17 36 C17 36.99 17 37.98 17 39 C17.66 39 18.32 39 19 39 C19 40.32 19 41.64 19 43 C12.16018724 42.48378772 6.36123316 40.51409031 0 38 C0.33 36.68 0.66 35.36 1 34 C1.99 34 2.98 34 4 34 C4 33.34 4 32.68 4 32 C3.21753906 31.76925781 2.43507813 31.53851562 1.62890625 31.30078125 C0.61699219 30.97464844 -0.39492188 30.64851563 -1.4375 30.3125 C-2.44683594 29.99925781 -3.45617188 29.68601562 -4.49609375 29.36328125 C-7 28 -7 28 -7.74389648 25.72802734 C-8.02982864 22.68226382 -7.60110949 20.8653557 -6.6015625 17.98828125 C-6.28703125 17.06595703 -5.9725 16.14363281 -5.6484375 15.19335938 C-5.31070313 14.24267578 -4.97296875 13.29199219 -4.625 12.3125 C-4.295 11.35021484 -3.965 10.38792969 -3.625 9.39648438 C-1.23028274 2.46056548 -1.23028274 2.46056548 0 0 Z M3 4 C2.32779649 5.93558599 1.66241923 7.87354372 1 9.8125 C0.62875 10.89144531 0.2575 11.97039063 -0.125 13.08203125 C-1.14361512 15.97120802 -1.14361512 15.97120802 -1 19 C0.43344 19.53190541 1.87195367 20.05015258 3.3125 20.5625 C4.11300781 20.85253906 4.91351563 21.14257812 5.73828125 21.44140625 C8.1433174 22.24915625 8.1433174 22.24915625 11 21 C10.67 20.67 10.34 20.34 10 20 C9.92820036 18.48071962 9.91607993 16.95832518 9.9375 15.4375 C9.94652344 14.61121094 9.95554687 13.78492188 9.96484375 12.93359375 C9.97644531 12.29550781 9.98804688 11.65742188 10 11 C10.99 11 11.98 11 13 11 C13.66 11.66 14.32 12.32 15 13 C15.804375 13 16.60875 13 17.4375 13 C20 13 20 13 23 15 C23 15.66 23 16.32 23 17 C20.69 17 18.38 17 16 17 C14.74890393 19.89719067 14.74890393 19.89719067 15.5625 22.54296875 C17.52596337 25.89899717 19.31953417 26.23755625 23 27.3125 C24.0725 27.63863281 25.145 27.96476562 26.25 28.30078125 C28.85013764 29.08214023 28.85013764 29.08214023 31 29 C31.70088156 27.25531628 32.38524009 25.50398839 33.0625 23.75 C33.44535156 22.77546875 33.82820313 21.8009375 34.22265625 20.796875 C35.21328678 17.28025836 35.21328678 17.28025836 34 14 C31.66197641 12.91595639 29.57202167 12.14336726 27.12109375 11.421875 C26.4344313 11.20557434 25.74776886 10.98927368 25.04029846 10.76641846 C22.84391119 10.07850746 20.64118846 9.41410557 18.4375 8.75 C16.94809246 8.28798763 15.45915271 7.82446432 13.97070312 7.359375 C10.31900103 6.22197363 6.66144821 5.1056051 3 4 Z M-3 23 C-3 23.66 -3 24.32 -3 25 C7.56 28.3 18.12 31.6 29 35 C29 34.34 29 33.68 29 33 C24.7654367 31.5720217 20.52958336 30.14795896 16.29248047 28.72753906 C14.85071123 28.24359309 13.40930254 27.75857161 11.96826172 27.27246094 C9.89904721 26.57465288 7.82857457 25.88070002 5.7578125 25.1875 C4.5114502 24.76855469 3.26508789 24.34960938 1.98095703 23.91796875 C-0.79872079 22.90189805 -0.79872079 22.90189805 -3 23 Z M10 34 C10 34.99 10 35.98 10 37 C10.99 36.67 11.98 36.34 13 36 C13 35.34 13 34.68 13 34 C12.01 34 11.02 34 10 34 Z " fill="#FFFFFF" transform="translate(60,0)"/>
<path d="M0 0 C0.33 2.97 0.66 5.94 1 9 C0.21625 9.103125 -0.5675 9.20625 -1.375 9.3125 C-4.33045181 9.77595022 -4.33045181 9.77595022 -6 13 C-2.37 13.33 1.26 13.66 5 14 C5.33 15.65 5.66 17.3 6 19 C3.18743719 19.02684312 0.37512759 19.04676188 -2.4375 19.0625 C-3.23994141 19.07087891 -4.04238281 19.07925781 -4.86914062 19.08789062 C-6.91295221 19.0965143 -8.95683902 19.0522815 -11 19 C-12 18 -12 18 -12.3125 15.3125 C-11.92929614 11.25053907 -10.4421517 9.20532411 -8 6 C-8.99 5.67 -9.98 5.34 -11 5 C-11 3.68 -11 2.36 -11 1 C-6.87831311 -0.62950412 -4.29299643 -1.26264601 0 0 Z " fill="#FFFFFF" transform="translate(41,90)"/>
<path d="M0 0 C1.765625 0.140625 1.765625 0.140625 4 1 C5.921875 3.546875 5.921875 3.546875 7.75 6.75 C8.36359375 7.79671875 8.9771875 8.8434375 9.609375 9.921875 C10.986941 12.97109413 11.40207618 14.7124359 11 18 C10 19 10 19 7.93359375 19.09765625 C7.10988281 19.08605469 6.28617188 19.07445313 5.4375 19.0625 C4.61121094 19.05347656 3.78492188 19.04445313 2.93359375 19.03515625 C1.97646484 19.01775391 1.97646484 19.01775391 1 19 C1 20.32 1 21.64 1 23 C-2.15473719 22.64947365 -3.8233534 22.13480924 -6.375 20.1875 C-8 18 -8 18 -8 16 C-6.69490068 13.38980136 -5.2787335 11.8229868 -3 10 C-1.68 10 -0.36 10 1 10 C1 11.32 1 12.64 1 14 C2.32 14 3.64 14 5 14 C4.55527344 13.24074219 4.11054687 12.48148438 3.65234375 11.69921875 C3.08644531 10.70535156 2.52054688 9.71148437 1.9375 8.6875 C1.36902344 7.70136719 0.80054688 6.71523437 0.21484375 5.69921875 C-1 3 -1 3 0 0 Z " fill="#FFFFFF" transform="translate(58,90)"/>
<path d="M0 0 C4.7734375 0.7421875 4.7734375 0.7421875 6.8125 3.0625 C7.204375 3.701875 7.59625 4.34125 8 5 C9.32 4.67 10.64 4.34 12 4 C13.60080151 8.00200378 12.29279692 11.04556236 11 15 C9.56138706 14.91253716 8.12402492 14.80434652 6.6875 14.6875 C5.88699219 14.62949219 5.08648437 14.57148437 4.26171875 14.51171875 C1.63727666 13.91793306 0.69179328 13.04219706 -1 11 C-1.66 12.32 -2.32 13.64 -3 15 C-4.32 15 -5.64 15 -7 15 C-7.46174018 10.42382495 -6.21158892 8.3190923 -3.5 4.6875 C-2.8503125 3.80449219 -2.200625 2.92148438 -1.53125 2.01171875 C-1.0259375 1.34785156 -0.520625 0.68398437 0 0 Z M1 6 C0.67 7.32 0.34 8.64 0 10 C1.32 9.34 2.64 8.68 4 8 C3.01 7.34 2.02 6.68 1 6 Z " fill="#FFFFFF" transform="translate(47,73)"/>
</svg>
