<?xml version="1.0" encoding="UTF-8"?>
<svg version="1.1" xmlns="http://www.w3.org/2000/svg" width="128" height="128">
<path d="M0 0 C2.0558848 0.00314874 4.11030848 -0.02035102 6.16601562 -0.0456543 C18.73157277 -0.10620464 32.73597519 0.84175278 43.32226562 8.31567383 C46.26192145 11.50457651 46.69184492 13.61793836 46.6628418 17.91040039 C46.6626152 19.03126038 46.66238861 20.15212036 46.66215515 21.3069458 C46.6466713 22.5112323 46.63118744 23.7155188 46.61523438 24.95629883 C46.61098953 26.19361755 46.60674469 27.43093628 46.60237122 28.70574951 C46.58842816 31.98729923 46.56149648 35.26840439 46.52825928 38.54980469 C46.49751156 41.9014069 46.48411165 45.25302822 46.46875 48.60473633 C46.43566559 55.1752226 46.38545408 61.74541185 46.32226562 68.31567383 C47.01291611 68.2951445 47.70356659 68.27461517 48.41514587 68.25346375 C49.31898514 68.23749649 50.2228244 68.22152924 51.15405273 68.20507812 C52.05095322 68.1845488 52.9478537 68.16401947 53.87193298 68.14286804 C56.32226563 68.31567383 56.32226563 68.31567383 59.01367188 70.08520508 C62.43494578 74.87267296 65.36246633 79.88533945 68.25976562 85.00317383 C69.45580826 87.0907412 70.65241738 89.17798413 71.84960938 91.26489258 C72.42702881 92.27962646 73.00444824 93.29436035 73.59936523 94.33984375 C75.70380926 97.97468409 77.91135859 101.54024661 80.15429688 105.09106445 C82.0532981 108.70805842 82.67583795 112.25762785 82.32226562 116.31567383 C80.75297327 120.11501322 78.75862789 122.13203906 75.32226562 124.31567383 C73.0146637 124.70335388 73.0146637 124.70335388 70.44946289 124.71972656 C69.48488663 124.73241074 68.52031036 124.74509491 67.52650452 124.75816345 C66.49101974 124.75522781 65.45553497 124.75229218 64.38867188 124.74926758 C63.31858383 124.75450943 62.24849579 124.75975128 61.14598083 124.76515198 C58.88403185 124.77157238 56.62204948 124.77023498 54.36010742 124.76171875 C50.90092427 124.75321356 47.44339481 124.78196399 43.984375 124.8137207 C41.78580779 124.81533293 39.58723765 124.81475477 37.38867188 124.81176758 C36.35521133 124.82300156 35.32175079 124.83423553 34.25697327 124.84580994 C27.07836224 124.77622203 27.07836224 124.77622203 23.19311523 122.40966797 C19.63779562 118.43028961 20.23901398 115.47727572 20.32226562 110.31567383 C19.33226563 110.81067383 19.33226563 110.81067383 18.32226562 111.31567383 C13.97441611 111.55377379 9.62216138 111.54424155 5.26855469 111.5559082 C3.12197646 111.56545279 0.97642471 111.59639082 -1.16992188 111.62817383 C-13.66045667 111.72489877 -27.14093386 110.7743079 -37.67773438 103.31567383 C-41.19024943 99.83991174 -42.14284094 97.30630229 -42.23095703 92.36601257 C-42.22443115 91.59860245 -42.21790527 90.83119232 -42.21118164 90.04052734 C-42.21979721 89.22038147 -42.22841278 88.4002356 -42.23728943 87.55523682 C-42.25994244 84.85136106 -42.25321173 82.14852237 -42.24414062 79.44458008 C-42.24937674 77.5603759 -42.25565318 75.67617435 -42.26292419 73.79197693 C-42.27332734 69.84524186 -42.26876852 65.89886736 -42.25415039 61.95214844 C-42.23696794 56.90010156 -42.26045147 51.84919258 -42.29563999 46.79727268 C-42.31762569 42.9066772 -42.31616959 39.01635347 -42.30787468 35.12571526 C-42.3070557 33.26342458 -42.31390891 31.40111385 -42.32864571 29.5388813 C-42.34611246 26.93195288 -42.33153265 24.32706217 -42.30883789 21.72021484 C-42.32053009 20.95482895 -42.33222229 20.18944305 -42.3442688 19.40086365 C-42.24142938 13.58006272 -40.68414132 11.23731614 -36.67773438 7.31567383 C-33.95117188 5.70629883 -33.95117188 5.70629883 -31.05273438 4.56567383 C-30.11171875 4.17895508 -29.17070312 3.79223633 -28.20117188 3.39379883 C-18.87114953 0.53893612 -9.71176349 -0.03095109 0 0 Z M-36.67773438 14.31567383 C-34.82245137 18.89074345 -32.23958267 20.12525702 -27.88476562 22.14379883 C-9.2007952 28.97107182 16.30933666 29.15909498 34.69726562 21.25317383 C37.06762761 20.07743651 39.1051765 18.79373325 41.32226562 17.31567383 C41.2745816 15.43686511 41.2745816 15.43686511 40.32226562 13.31567383 C22.82556483 -0.20210857 -19.67224528 -0.4100939 -36.67773438 14.31567383 Z M-36.67773438 23.31567383 C-37.56263537 31.78896855 -37.56263537 31.78896855 -34.55273438 39.37817383 C-32.85194914 40.45655607 -32.85194914 40.45655607 -30.67773438 41.31567383 C-29.64519531 41.76040039 -28.61265625 42.20512695 -27.54882812 42.66333008 C-20.81925579 45.157025 -20.81925579 45.157025 -13.88476562 44.44848633 C-12.13313917 43.51039894 -10.38980403 42.55669497 -8.65429688 41.58911133 C-2.63180722 39.01256063 3.94465342 39.45714911 10.32226562 40.31567383 C13.36914063 41.55395508 13.36914063 41.55395508 16.07226562 43.00317383 C20.35592705 45.27705726 22.76412277 45.52488437 27.50976562 44.44067383 C29.46580167 43.78526149 31.40561107 43.07861399 33.32226562 42.31567383 C34.15886719 42.03852539 34.99546875 41.76137695 35.85742188 41.47583008 C38.42739665 40.34721682 39.70139004 39.6258873 41.32226562 37.31567383 C41.98974869 32.57869725 41.78505198 28.06566158 41.32226562 23.31567383 C40.48566406 23.6534082 39.6490625 23.99114258 38.78710938 24.33911133 C15.8299809 33.13553043 -10.68801418 32.86740549 -33.67773438 24.31567383 C-34.66773438 23.98567383 -35.65773438 23.65567383 -36.67773438 23.31567383 Z M-36.67773438 43.31567383 C-36.35173947 46.35829291 -35.69878177 47.29579573 -33.42773438 49.44067383 C-29.80734962 51.90911798 -27.08693227 53.31567383 -22.67773438 53.31567383 C-22.01773437 51.99567383 -21.35773437 50.67567383 -20.67773438 49.31567383 C-21.66515625 48.96633789 -22.65257812 48.61700195 -23.66992188 48.25708008 C-24.96421651 47.79751169 -26.25848604 47.3378726 -27.55273438 46.87817383 C-28.20371094 46.64807617 -28.8546875 46.41797852 -29.52539062 46.1809082 C-34.45117188 44.42895508 -34.45117188 44.42895508 -36.67773438 43.31567383 Z M-17.11523438 52.69067383 C-22.3116253 59.55049867 -23.55524257 65.86965748 -22.67773438 74.31567383 C-21.20051273 81.3694072 -17.33962104 86.73081265 -11.48632812 90.86254883 C-5.02579147 94.55428406 0.97949925 95.49905229 8.32226562 94.31567383 C15.684708 92.02606978 21.0577692 87.71241847 25.32226562 81.31567383 C28.55148687 74.86806766 28.41239179 66.82982044 26.74023438 59.90551758 C23.96783187 53.53785337 18.06933038 48.1892062 11.92382812 45.11645508 C1.23674947 41.82688883 -9.56452881 44.49223617 -17.11523438 52.69067383 Z M33.19726562 46.31567383 C32.1015625 46.68692383 31.00585938 47.05817383 29.87695312 47.44067383 C28.61238281 47.87379883 28.61238281 47.87379883 27.32226562 48.31567383 C27.32226562 49.63567383 27.32226562 50.95567383 27.32226562 52.31567383 C31.09932325 53.57469304 31.9624559 52.86041889 35.44726562 51.12817383 C36.33671875 50.70149414 37.22617188 50.27481445 38.14257812 49.83520508 C40.48582481 48.50991245 40.48582481 48.50991245 41.12695312 46.13989258 C41.19140625 45.53790039 41.25585938 44.9359082 41.32226562 44.31567383 C38.39087732 44.31567383 35.96486263 45.37351315 33.19726562 46.31567383 Z M-36.67773438 53.31567383 C-36.78605607 55.39785745 -36.86346979 57.48166512 -36.92773438 59.56567383 C-36.97414063 60.72583008 -37.02054688 61.88598633 -37.06835938 63.08129883 C-36.94400218 66.35264787 -36.94400218 66.35264787 -34.97460938 68.61254883 C-32.39926423 70.6732652 -32.39926423 70.6732652 -27.67773438 72.31567383 C-27.01773437 67.69567383 -26.35773437 63.07567383 -25.67773438 58.31567383 C-29.30773438 56.66567383 -32.93773438 55.01567383 -36.67773438 53.31567383 Z M35.19726562 55.81567383 C33.91851562 56.31067383 32.63976562 56.80567383 31.32226562 57.31567383 C31.65226562 62.26567383 31.98226562 67.21567383 32.32226562 72.31567383 C37.21789256 70.43865056 37.21789256 70.43865056 41.32226562 67.31567383 C41.56586635 64.18752869 41.56586635 64.18752869 41.44726562 60.69067383 C41.42921875 59.5021582 41.41117188 58.31364258 41.39257812 57.08911133 C41.369375 56.17387695 41.34617187 55.25864258 41.32226562 54.31567383 C38.95682846 54.31567383 37.39922299 54.96330324 35.19726562 55.81567383 Z M44.32226562 77.31567383 C43.00030875 79.39180529 41.74394728 81.51042221 40.53710938 83.65551758 C40.02356651 84.56147423 40.02356651 84.56147423 39.49964905 85.48573303 C38.41351073 87.40480302 37.33643356 89.32877765 36.25976562 91.25317383 C35.17748994 93.17279548 34.09339788 95.09138312 33.00917053 97.00990295 C32.02594657 98.75205441 31.04691431 100.49656959 30.06811523 102.24121094 C28.95956971 104.19337341 27.8130816 106.12484111 26.61743164 108.02490234 C24.93353962 111.00321692 24.88286125 112.94690694 25.32226562 116.31567383 C27.17569337 118.87516929 28.25982956 119.29486181 31.32226562 120.31567383 C34.21323512 120.42499929 37.07935597 120.47972784 39.97070312 120.48364258 C41.24501694 120.48863518 41.24501694 120.48863518 42.54507446 120.49372864 C44.34221862 120.49879041 46.13937216 120.50113719 47.93652344 120.50097656 C50.679846 120.50315996 53.42276437 120.52131496 56.16601562 120.5402832 C57.91341009 120.54321793 59.66080645 120.5452022 61.40820312 120.54614258 C62.63499283 120.55692085 62.63499283 120.55692085 63.88656616 120.56791687 C68.09882374 120.55110262 71.56176625 120.44899136 75.32226562 118.31567383 C77.62603891 115.51987595 77.62603891 115.51987595 77.1315918 112.47094727 C76.28214299 109.15925001 75.12122582 106.76178719 73.37304688 103.83129883 C72.47102539 102.30375977 72.47102539 102.30375977 71.55078125 100.74536133 C70.91849609 99.69606445 70.28621094 98.64676758 69.63476562 97.56567383 C69.02181641 96.5318457 68.40886719 95.49801758 67.77734375 94.43286133 C66.55882466 92.38089069 65.33510232 90.33200012 64.10595703 88.28637695 C62.92889205 86.32599826 61.75912368 84.36121756 60.59716797 82.3918457 C60.06687988 81.49530273 59.5365918 80.59875977 58.99023438 79.67504883 C58.28870239 78.48347168 58.28870239 78.48347168 57.57299805 77.26782227 C56.34118958 75.19198072 56.34118958 75.19198072 54.32226562 73.31567383 C49.2338067 72.65196179 47.59783185 73.50808763 44.32226562 77.31567383 Z M-36.67773438 74.31567383 C-35.69281661 77.95986955 -35.01947086 79.10481515 -31.74023438 81.12817383 C-28.75899886 82.49643776 -28.75899886 82.49643776 -25.67773438 82.31567383 C-26.00773437 80.66567383 -26.33773438 79.01567383 -26.67773438 77.31567383 C-29.97773438 76.32567383 -33.27773438 75.33567383 -36.67773438 74.31567383 Z M31.32226562 78.31567383 C29.89669206 80.87289119 29.89669206 80.87289119 29.32226562 83.31567383 C34.29219533 82.26923889 34.29219533 82.26923889 38.25976562 79.31567383 C39.4786507 77.3987534 39.4786507 77.3987534 39.32226562 75.31567383 C36.10157018 75.31567383 34.04172585 76.67266661 31.32226562 78.31567383 Z M-36.67773438 84.31567383 C-36.81309459 86.39721318 -36.90988902 88.48128589 -36.99023438 90.56567383 C-37.04824219 91.72583008 -37.10625 92.88598633 -37.16601562 94.08129883 C-36.97074717 97.42914407 -36.97074717 97.42914407 -34.56054688 99.60083008 C-31.47962184 101.43352126 -28.68190721 102.5099938 -25.24023438 103.50317383 C-24.14839844 103.82672852 -23.0565625 104.1502832 -21.93164062 104.48364258 C-16.47398759 105.87917691 -11.37387992 106.44313406 -5.74023438 106.44848633 C-4.433125 106.44977539 -3.12601563 106.45106445 -1.77929688 106.45239258 C-0.76851074 106.44925049 -0.76851074 106.44925049 0.26269531 106.44604492 C2.31648137 106.44068891 4.37004877 106.44600828 6.42382812 106.45239258 C7.7309375 106.45110352 9.03804687 106.44981445 10.38476562 106.44848633 C12.16560547 106.44679443 12.16560547 106.44679443 13.98242188 106.44506836 C19.94534177 106.52205685 19.94534177 106.52205685 24.82958984 103.73339844 C25.17521973 103.06832275 25.52084961 102.40324707 25.87695312 101.71801758 C26.26367188 100.99936523 26.65039062 100.28071289 27.04882812 99.5402832 C27.61730469 98.40816406 27.61730469 98.40816406 28.19726562 97.25317383 C28.59945312 96.49456055 29.00164062 95.73594727 29.41601562 94.9543457 C30.40375431 93.08469748 31.36558285 91.20140187 32.32226562 89.31567383 C30.48232418 88.65185537 30.48232418 88.65185537 28.32226562 88.31567383 C25.84297968 89.5553168 23.63497335 90.81591791 21.32226562 92.31567383 C19.92837996 93.21453467 18.53253822 94.11036936 17.13476562 95.00317383 C16.50183594 95.41954102 15.86890625 95.8359082 15.21679688 96.26489258 C8.82878201 99.80793587 -0.52924268 99.41714926 -7.38476562 97.59692383 C-11.57927556 95.82479697 -14.4485243 93.62715423 -17.81054688 90.55004883 C-23.22043011 86.97364066 -30.43092138 85.83928675 -36.67773438 84.31567383 Z " fill="#FFFFFF" transform="translate(43.677734375,1.684326171875)"/>
<path d="M0 0 C3.56045698 1.65505617 4.62133828 5.30969349 6.33984375 8.6796875 C7.83205296 11.17204051 7.83205296 11.17204051 10.69140625 11.7421875 C11.45324219 11.8040625 12.21507813 11.8659375 13 11.9296875 C13.2475 11.0634375 13.495 10.1971875 13.75 9.3046875 C15.06778613 5.74666496 16.80186822 3.007072 19 -0.0703125 C24.23771531 0.58665179 26.14800892 2.5773839 29.4140625 6.53515625 C31.9400413 10.34901094 33.38347216 14.39820787 34 18.9296875 C33.67 20.2496875 33.34 21.5696875 33 22.9296875 C28.38 22.9296875 23.76 22.9296875 19 22.9296875 C17.8832807 28.28943343 17.8832807 28.28943343 20.5 32.4296875 C22.25425195 35.07972768 23.00646361 36.38028066 22.96875 39.5859375 C22 41.9296875 22 41.9296875 19.8359375 43.22265625 C12.03678193 45.16707382 4.04633657 44.86252652 -3 40.9296875 C-2.5012708 36.81517156 -1.06702338 34.19801407 1.2578125 30.87109375 C2.41896366 28.32442583 2.41896366 28.32442583 1 22.9296875 C-3.62 22.9296875 -8.24 22.9296875 -13 22.9296875 C-13.58760069 15.52591886 -12.43973526 10.93434251 -8 4.9296875 C-3.48977492 -0.1226874 -3.48977492 -0.1226874 0 0 Z M-2 6.9296875 C-6.44683404 11.70363005 -6.44683404 11.70363005 -8 17.9296875 C-5.03 17.9296875 -2.06 17.9296875 1 17.9296875 C2.39735818 15.77544694 2.39735818 15.77544694 3 12.9296875 C1.30755015 9.59861586 1.30755015 9.59861586 -1 6.9296875 C-1.33 6.9296875 -1.66 6.9296875 -2 6.9296875 Z M21 6.9296875 C19.68 9.5696875 18.36 12.2096875 17 14.9296875 C17.99 16.4146875 17.99 16.4146875 19 17.9296875 C21.20725073 18.29331568 21.20725073 18.29331568 23.625 18.1171875 C24.44226562 18.09011719 25.25953125 18.06304687 26.1015625 18.03515625 C26.72804688 18.00035156 27.35453125 17.96554688 28 17.9296875 C27.46968862 13.4220408 25.74778884 10.51013962 23 6.9296875 C22.34 6.9296875 21.68 6.9296875 21 6.9296875 Z M6 18.9296875 C6.32041397 21.53249318 6.32041397 21.53249318 7 23.9296875 C9.39719432 24.60927353 9.39719432 24.60927353 12 24.9296875 C14.26839983 23.09703425 14.26839983 23.09703425 14.1875 20.3671875 C14.27003323 17.98279027 14.27003323 17.98279027 13 16.9296875 C9.038832 16.53878417 9.038832 16.53878417 6 18.9296875 Z M5.625 32.7421875 C5.08875 33.7940625 4.5525 34.8459375 4 35.9296875 C4.33 36.9196875 4.66 37.9096875 5 38.9296875 C8.63 38.9296875 12.26 38.9296875 16 38.9296875 C16.33 38.2696875 16.66 37.6096875 17 36.9296875 C16.23498445 35.13428239 16.23498445 35.13428239 15.0625 33.3046875 C14.381875 32.1909375 13.70125 31.0771875 13 29.9296875 C9.01310271 29.26520462 8.31289483 29.55915414 5.625 32.7421875 Z " fill="#FFFFFF" transform="translate(36,50.0703125)"/>
<path d="M0 0 C0.928125 0.28875 1.85625 0.5775 2.8125 0.875 C4.62714705 4.5042941 4.04008249 8.75407887 4.0625 12.75 C4.083125 13.66136719 4.10375 14.57273437 4.125 15.51171875 C4.13015625 16.39214844 4.1353125 17.27257812 4.140625 18.1796875 C4.15464355 19.3860083 4.15464355 19.3860083 4.16894531 20.61669922 C3.73141927 23.38869638 2.62937019 24.77930319 0.8125 26.875 C1.5859375 27.4009375 1.5859375 27.4009375 2.375 27.9375 C3.8125 29.875 3.8125 29.875 3.5 33.5625 C3.273125 34.655625 3.04625 35.74875 2.8125 36.875 C-3.61298263 38.20859073 -3.61298263 38.20859073 -6.125 36.75 C-7.54816991 34.23852369 -7.61424516 32.71996772 -7.1875 29.875 C-5.6875 28.0625 -5.6875 28.0625 -4.1875 26.875 C-4.8475 25.885 -5.5075 24.895 -6.1875 23.875 C-6.78176709 20.59059282 -6.88338114 17.26769661 -7.0625 13.9375 C-7.1346875 13.03064453 -7.206875 12.12378906 -7.28125 11.18945312 C-7.65209144 4.5582227 -7.65209144 4.5582227 -5.39453125 1.23828125 C-3.1875 -0.125 -3.1875 -0.125 0 0 Z M-2.1875 4.875 C-2.1875 7.185 -2.1875 9.495 -2.1875 11.875 C-1.8575 11.875 -1.5275 11.875 -1.1875 11.875 C-1.1875 9.565 -1.1875 7.255 -1.1875 4.875 C-1.5175 4.875 -1.8475 4.875 -2.1875 4.875 Z " fill="#FFFFFF" transform="translate(96.1875,82.125)"/>
<path d="M0 0 C2.625 1.625 2.625 1.625 4.625 3.625 C5 6 5 6 4.625 8.625 C2.3772146 11.41535429 1.04769984 12.48410005 -2.375 13.625 C-8.04903168 14.12508415 -12.76182465 14.37320497 -17.375 10.625 C-18.035 9.965 -18.695 9.305 -19.375 8.625 C-19.22668793 5.13966624 -19.04976106 3.27726902 -16.5 0.8125 C-11.06201653 -2.22637312 -5.6443416 -2.29954658 0 0 Z M-14.375 6.625 C-10.73469312 8.9547964 -7.62381273 9.0112557 -3.375 8.625 C-1.43130262 7.27070159 -1.43130262 7.27070159 -0.375 5.625 C-5.43545417 2.51087436 -9.96421175 2.55350315 -14.375 6.625 Z " fill="#FFFFFF" transform="translate(71.375,11.375)"/>
</svg>
