<?xml version="1.0" encoding="UTF-8"?>
<svg version="1.1" xmlns="http://www.w3.org/2000/svg" width="128" height="128">
<path d="M0 0 C2 3 2 3 2 6 C2.74765625 5.7834375 3.4953125 5.566875 4.265625 5.34375 C5.25046875 5.0653125 6.2353125 4.786875 7.25 4.5 C8.22453125 4.2215625 9.1990625 3.943125 10.203125 3.65625 C13 3 13 3 17 3 C17 4.32 17 5.64 17 7 C16.01 7 15.02 7 14 7 C16.64 16.9 19.28 26.8 22 37 C24.475 36.505 24.475 36.505 27 36 C27.22151549 34.20991533 27.42682213 32.41781838 27.625 30.625 C27.74101563 29.62726563 27.85703125 28.62953125 27.9765625 27.6015625 C27.98429687 26.74304688 27.99203125 25.88453125 28 25 C27.34 24.34 26.68 23.68 26 23 C26.375 19.375 26.375 19.375 27 16 C28.051875 15.87625 29.10375 15.7525 30.1875 15.625 C33.9036528 15.19163549 33.9036528 15.19163549 36.6875 13.75 C39 13 39 13 41.3125 14 C43 16 43 16 42.875 18.75 C43.03997582 23.03937124 44.75335926 24.43220203 47.6875 27.38671875 C49 29 49 29 49 32 C49.58007812 31.97679687 50.16015625 31.95359375 50.7578125 31.9296875 C57.51750547 31.77352298 57.51750547 31.77352298 61.0625 33.4375 C62.5165625 33.7159375 62.5165625 33.7159375 64 34 C66.2683836 32.43823589 68.14021917 30.67347193 70.1015625 28.7421875 C72 27 72 27 74.9375 25.875 C75.618125 25.58625 76.29875 25.2975 77 25 C77.81931089 22.48823926 77.81931089 22.48823926 78 20 C79 19 79 19 81.75 18.75 C85.39122024 19.03009386 87.04643957 19.9245251 90 22 C90.99 22.66 91.98 23.32 93 24 C93.375 27 93.375 27 93 30 C92.01 30.66 91.02 31.32 90 32 C89.71069363 33.9057394 89.71069363 33.9057394 89.9375 36.0625 C90.07763386 39.5434251 89.77144661 42.38409667 88.875 45.75 C87.95201875 49.51393061 87.93844818 51.56408029 90 55 C90.51175781 55.60457031 91.02351563 56.20914063 91.55078125 56.83203125 C94.07954938 60.61495931 93.75092075 64.62536993 93 69 C91.10665263 72.61984803 88.93513731 74.68828756 85 76 C83.61755822 76.09615441 82.23101886 76.13910564 80.84526062 76.14717102 C79.99997803 76.15432632 79.15469543 76.16148163 78.28379822 76.16885376 C76.89747948 76.17288712 76.89747948 76.17288712 75.4831543 76.17700195 C74.01928787 76.18685875 74.01928787 76.18685875 72.52584839 76.19691467 C69.29197108 76.21664707 66.05814019 76.22830954 62.82421875 76.23828125 C61.72017008 76.24235678 60.61612141 76.2464323 59.47861671 76.25063133 C53.63621838 76.27149079 47.79384354 76.28579365 41.95141602 76.29516602 C35.91532661 76.30623638 29.87960525 76.34064419 23.84364605 76.38033772 C19.20336722 76.40647241 14.56317654 76.41485502 9.92283058 76.41844749 C7.69768599 76.42332076 5.47254553 76.43495569 3.24747276 76.45348549 C0.13302731 76.47781167 -2.98045949 76.47692366 -6.0949707 76.4699707 C-7.0131105 76.48278076 -7.93125031 76.49559082 -8.87721252 76.50878906 C-14.55835624 76.46258211 -17.62628629 75.69472475 -22 72 C-24.59076756 68.58489731 -24.35933413 65.16827596 -24 61 C-22.5 57.5625 -22.5 57.5625 -21 55 C-20.34 55 -19.68 55 -19 55 C-19.21914063 54.31679687 -19.43828125 53.63359375 -19.6640625 52.9296875 C-23.08985578 42.03956413 -26.03747794 31.0233724 -29 20 C-30.32 19.67 -31.64 19.34 -33 19 C-32.67 17.68 -32.34 16.36 -32 15 C-30.7625 14.67 -29.525 14.34 -28.25 14 C-27.20585937 13.7215625 -27.20585937 13.7215625 -26.140625 13.4375 C-24 13 -24 13 -20 13 C-20.05800781 12.38511719 -20.11601562 11.77023438 -20.17578125 11.13671875 C-20.31262723 8.68522073 -20.33347524 6.43393614 -20 4 C-14.96422401 -0.87840799 -6.51334888 -1.69347071 0 0 Z M-11.75 4.5 C-12.94882812 4.91765625 -12.94882812 4.91765625 -14.171875 5.34375 C-14.77515625 5.5603125 -15.3784375 5.776875 -16 6 C-16 7.65 -16 9.3 -16 11 C-14.41642541 10.68872484 -12.83315007 10.37592711 -11.25 10.0625 C-10.36828125 9.88847656 -9.4865625 9.71445312 -8.578125 9.53515625 C-6.36764947 9.07631512 -4.18487932 8.56663926 -2 8 C-2.33 6.35 -2.66 4.7 -3 3 C-6.58063513 3 -8.47487986 3.34407525 -11.75 4.5 Z M-7.06420898 12.30810547 C-9.18818083 12.87518177 -11.31549793 13.42819187 -13.44335938 13.98046875 C-14.78928814 14.3376926 -16.13499942 14.69573707 -17.48046875 15.0546875 C-18.70660889 15.37937012 -19.93274902 15.70405273 -21.19604492 16.03857422 C-24.13159185 16.67899899 -24.13159185 16.67899899 -25 19 C-24.55129451 21.24631673 -24.00600773 23.4735701 -23.41796875 25.6875 C-23.24372879 26.34580811 -23.06948883 27.00411621 -22.88996887 27.68237305 C-22.51926809 29.07532058 -22.14495605 30.46731128 -21.76733398 31.85839844 C-21.19050898 33.98888642 -20.62867929 36.12293205 -20.06835938 38.2578125 C-19.70662558 39.60961519 -19.34402405 40.96118605 -18.98046875 42.3125 C-18.64942139 43.54613281 -18.31837402 44.77976563 -17.97729492 46.05078125 C-17.21787292 49.08132102 -17.21787292 49.08132102 -15 51 C-14.67 50.01 -14.34 49.02 -14 48 C-11.9375 46.8125 -11.9375 46.8125 -10 46 C-10.62428218 43.33316351 -11.24940826 40.66652933 -11.875 38 C-12.04902344 37.25621094 -12.22304688 36.51242188 -12.40234375 35.74609375 C-13.55902782 30.81947641 -14.76213258 25.90686184 -16 21 C-14.68 21 -13.36 21 -12 21 C-11.88785156 21.97066406 -11.77570312 22.94132812 -11.66015625 23.94140625 C-11.02203591 28.4082486 -9.75501114 32.63067788 -8.4375 36.9375 C-8.20353516 37.71673828 -7.96957031 38.49597656 -7.72851562 39.29882812 C-7.15682579 41.20057187 -6.57904309 43.10048226 -6 45 C-2.50818667 44.22321949 -0.04028113 42.90017571 3 41 C4.32 40.34 5.64 39.68 7 39 C5.02 31.41 3.04 23.82 1 16 C1.99 16.33 2.98 16.66 4 17 C4.90380859 19.28491211 4.90380859 19.28491211 5.6484375 22.27734375 C5.93203125 23.34791016 6.215625 24.41847656 6.5078125 25.52148438 C7.0845352 27.7933042 7.65488347 30.06675205 8.21875 32.34179688 C8.64800781 33.94958008 8.64800781 33.94958008 9.0859375 35.58984375 C9.3339209 36.57847412 9.5819043 37.56710449 9.83740234 38.58569336 C10.81498523 41.23855987 10.81498523 41.23855987 13.61962891 42.33813477 C14.7979126 42.66575806 14.7979126 42.66575806 16 43 C16.66 42.34 17.32 41.68 18 41 C17.58327969 34.58424354 15.64380674 28.37891358 14 22.1875 C13.72671875 21.13884766 13.4534375 20.09019531 13.171875 19.00976562 C11.92873305 13.88041694 11.92873305 13.88041694 10 9 C4.08387521 9 -1.38519144 10.78638525 -7.06420898 12.30810547 Z M37 17 C36.67 17.66 36.34 18.32 36 19 C34.02 19 32.04 19 30 19 C30.33 19.99 30.66 20.98 31 22 C34.465 21.505 34.465 21.505 38 21 C38 19.68 38 18.36 38 17 C37.67 17 37.34 17 37 17 Z M81 23 C81.66 24.32 82.32 25.64 83 27 C83.66 26.67 84.32 26.34 85 26 C84.34 25.01 83.68 24.02 83 23 C82.34 23 81.68 23 81 23 Z M33.125 25.9375 C31.35685337 29.17910216 31.30044969 32.3345138 31 36 C33.97 37.65 36.94 39.3 40 41 C41.98 38.36 43.96 35.72 46 33 C44.31088047 29.28278785 44.31088047 29.28278785 42 26 C38.56063013 24.9138832 36.42796818 24.28601591 33.125 25.9375 Z M86 26 C86 26.99 86 27.98 86 29 C86.99 28.67 87.98 28.34 89 28 C89 27.34 89 26.68 89 26 C88.01 26 87.02 26 86 26 Z M69.125 34.5625 C66.78095493 36.71230202 66.78095493 36.71230202 67 39 C68.175625 38.938125 69.35125 38.87625 70.5625 38.8125 C76.27809429 38.80236597 80.2557839 40.83718927 85 44 C86.30016302 37.80236364 86.30016302 37.80236364 84.3125 32 C78.52877128 26.99785624 74.42017838 29.84288448 69.125 34.5625 Z M45 39 C42.69292339 42.75932588 42.69292339 42.75932588 42 47 C39.55061458 45.57119184 37.23866986 44.20017472 35.0625 42.375 C32.29368009 40.52912006 30.32342032 40.13293681 27 40 C23.02527937 41.52873871 21.38146335 42.42780497 19 46 C19.825 46.639375 20.65 47.27875 21.5 47.9375 C24.44814718 51.5489803 24.75994253 53.37424282 24.48046875 57.90625 C24 60 24 60 21.9375 62.5625 C18.29606724 64.34447773 16.01044618 64.51042042 12 64 C9.625 62.875 9.625 62.875 8 61 C7.25 57.8125 7.25 57.8125 7 55 C7.66 55 8.32 55 9 55 C10.04892238 56.63631892 11.04906703 58.30485863 12 60 C12.33 60.33 12.66 60.66 13 61 C15.33944736 60.71269945 17.6739143 60.38063221 20 60 C21.30514736 57.78223378 21.30514736 57.78223378 22 55 C20.7085761 51.73345719 19.80870648 50.35251308 16.5625 48.9375 C15.716875 48.628125 14.87125 48.31875 14 48 C13.071875 46.948125 13.071875 46.948125 12.125 45.875 C10.02573104 43.67693246 10.02573104 43.67693246 6.5 43.5 C2.37193332 44.08972381 1.80142696 45.11102844 -1 48 C-3.33333333 48.33333333 -5.66666667 48.66666667 -8 49 C-10.25 50.75 -10.25 50.75 -12 53 C-14.04261441 55.04261441 -16.02946528 57.0245544 -18.25 58.875 C-20.23059766 60.93417144 -20.23059766 60.93417144 -20.5625 63.9375 C-19.78603013 68.16494705 -18.4024222 69.39206948 -15 72 C-11.80670038 72.72595513 -8.68749684 72.67350803 -5.42382812 72.63110352 C-4.46552597 72.63825882 -3.50722382 72.64541412 -2.5198822 72.65278625 C0.64348215 72.669676 3.80542991 72.65026837 6.96875 72.62890625 C9.16923134 72.62973492 11.36971261 72.63219422 13.57019043 72.63621521 C18.1802841 72.63907342 22.789892 72.62436924 27.39990234 72.59692383 C33.30834811 72.56284153 39.21592519 72.56885933 45.12441254 72.5875864 C49.66777787 72.59815637 54.21094117 72.58921849 58.75428772 72.57420158 C60.93277893 72.56901933 63.11129124 72.56950209 65.28977966 72.57574654 C68.33492378 72.58119852 71.37882556 72.56082322 74.42382812 72.53344727 C75.32371964 72.53997314 76.22361115 72.54649902 77.15077209 72.55322266 C81.30147169 72.48979207 83.46296488 72.33437819 87.06140137 70.09385681 C89.10685051 68.19727663 89.10685051 68.19727663 89.59375 65.96484375 C89.42188494 61.73497249 89.42188494 61.73497249 87.625 58 C86.03412093 56.82530086 86.03412093 56.82530086 84 57 C84.185625 55.4840625 84.185625 55.4840625 84.375 53.9375 C83.94149258 49.38567214 82.92422361 47.62666366 79.84765625 44.3828125 C76.5919471 41.94619297 74.04060155 42 70 42 C67.14377513 42.35066385 67.14377513 42.35066385 65 43 C63.79557292 41.47005208 62.59114583 39.94010417 61.38671875 38.41015625 C59.07178305 36.05609488 56.83583789 35.98783984 53.625 35.75 C49.67686913 36.02228489 48.01849856 36.48458453 45 39 Z " fill="#FFFFFF" transform="translate(34,40)"/>
<path d="M0 0 C2.81334276 1.45204788 3.67389819 3.14026959 4.9375 6 C4.8125 8.1875 4.8125 8.1875 3.9375 10 C0.9375 12 0.9375 12 -2.0625 12 C-2.3925 13.65 -2.7225 15.3 -3.0625 17 C-3.7225 17 -4.3825 17 -5.0625 17 C-5.5575 19.475 -5.5575 19.475 -6.0625 22 C-7.0525 22 -8.0425 22 -9.0625 22 C-9.743125 20.7934375 -9.743125 20.7934375 -10.4375 19.5625 C-11.241875 18.2940625 -11.241875 18.2940625 -12.0625 17 C-12.908125 16.835 -13.75375 16.67 -14.625 16.5 C-15.429375 16.335 -16.23375 16.17 -17.0625 16 C-17.72916667 14.33333333 -18.39583333 12.66666667 -19.0625 11 C-21.46360217 9.91975342 -21.46360217 9.91975342 -24.0625 10 C-27.31099977 11.72226496 -27.31099977 11.72226496 -28.0625 15 C-31.0325 14.67 -34.0025 14.34 -37.0625 14 C-37.7225 15.65 -38.3825 17.3 -39.0625 19 C-40.0525 19 -41.0425 19 -42.0625 19 C-42.38035906 15.50355037 -42.45894605 13.602598 -40.5 10.625 C-37.25075726 8.45883817 -34.90642304 8.93135852 -31.0625 9 C-29.69516972 8.04701223 -28.35985507 7.04625409 -27.0625 6 C-24.08637163 5.25596791 -21.96350867 4.72696707 -19 5.625 C-16.88962004 6.25823187 -16.88962004 6.25823187 -14.6875 4.5625 C-11.53625283 2.68675764 -9.66316991 3 -6.0625 3 C-1.9825 0 -1.9825 0 0 0 Z M-12.3125 7.875 C-12.89 8.24625 -13.4675 8.6175 -14.0625 9 C-13.7325 10.32 -13.4025 11.64 -13.0625 13 C-10.7525 13.33 -8.4425 13.66 -6.0625 14 C-6.0625 12.35 -6.0625 10.7 -6.0625 9 C-9.00659363 7.06403854 -9.00659363 7.06403854 -12.3125 7.875 Z " fill="#FFFFFF" transform="translate(108.0625,84)"/>
<path d="M0 0 C0.99 0 1.98 0 3 0 C2.835 0.804375 2.67 1.60875 2.5 2.4375 C1.37491876 10.45370385 2.12641663 15.86131463 5.1015625 23.42578125 C7.06408337 29.04883019 6.11247887 33.58677289 4 39 C2.68 39 1.36 39 0 39 C0.11859375 38.17757812 0.2371875 37.35515625 0.359375 36.5078125 C1.17695188 29.42759675 0.95537595 24.90393387 -2.0625 18.48046875 C-4.13556628 12.99548088 -3.89953763 7.1845914 -1.6875 1.8125 C-1.130625 1.214375 -0.57375 0.61625 0 0 Z " fill="#FFFFFF" transform="translate(90,12)"/>
<path d="M0 0 C1.32 0.33 2.64 0.66 4 1 C3.67 1.845625 3.34 2.69125 3 3.5625 C1.38428102 9.11653399 1.3565327 12.99742336 4 18.125 C6.77594902 23.83439869 6.74200219 29.77063278 6 36 C5.34 36.99 4.68 37.98 4 39 C3.01 39 2.02 39 1 39 C1.04640625 38.03320312 1.0928125 37.06640625 1.140625 36.0703125 C1.34492195 28.7010298 1.05583686 22.92626797 -2.09765625 16.13671875 C-3.7129275 12.31181237 -3.65895912 8.91286418 -2.31640625 5.015625 C-1.6061824 3.31652488 -0.8100442 1.65384023 0 0 Z " fill="#FFFFFF" transform="translate(103,12)"/>
<path d="M0 0 C0.99 0 1.98 0 3 0 C2.88140625 0.89460937 2.7628125 1.78921875 2.640625 2.7109375 C1.85982527 10.03483899 1.89588969 14.91354069 5.06640625 21.55078125 C6.94164262 26.47033441 7.11568046 32.47055651 4.9765625 37.3203125 C4.49316406 38.15175781 4.49316406 38.15175781 4 39 C2.68 38.67 1.36 38.34 0 38 C0.33 37.01 0.66 36.02 1 35 C1.71723091 27.93351183 0.76371054 22.72305613 -2.09765625 16.27734375 C-3.97895329 11.52930836 -3.41021445 7.63239103 -1.5 3.0625 C-1.005 2.051875 -0.51 1.04125 0 0 Z " fill="#FFFFFF" transform="translate(76,12)"/>
</svg>
