<?xml version="1.0" encoding="UTF-8"?>
<svg version="1.1" xmlns="http://www.w3.org/2000/svg" width="128" height="128">
<path d="M0 0 C0 1.98 0 3.96 0 6 C-0.66 6 -1.32 6 -2 6 C-2 10.29 -2 14.58 -2 19 C-1.34 19 -0.68 19 0 19 C0.625 21.375 0.625 21.375 1 24 C0.34 24.66 -0.32 25.32 -1 26 C-1.24212873 27.98128508 -1.24212873 27.98128508 -1.125 30.125 C-1.08375 31.40375 -1.0425 32.6825 -1 34 C-0.67 33.67 -0.34 33.34 0 33 C4.38887329 32.44312035 7.10344181 32.72262308 10.640625 35.30078125 C11.85788563 36.2875001 13.06091771 37.29199972 14.25 38.3125 C14.86101562 38.81201172 15.47203125 39.31152344 16.1015625 39.82617188 C17.75968241 41.19285368 19.39611448 42.57010141 21 44 C21.55308838 44.4228125 22.10617676 44.845625 22.67602539 45.28125 C24.66762087 47.86668835 24.33834698 49.97736472 24.29296875 53.19921875 C24.28330078 54.40771484 24.27363281 55.61621094 24.26367188 56.86132812 C24.23853516 58.12396484 24.21339844 59.38660156 24.1875 60.6875 C24.16719727 62.59885742 24.16719727 62.59885742 24.14648438 64.54882812 C24.11108199 67.69964057 24.0616979 70.84961045 24 74 C24.804375 74.28875 25.60875 74.5775 26.4375 74.875 C29 76 29 76 30 78 C30.49018029 82.32992589 30.54329778 84.28092941 27.875 87.8125 C22.34733405 92.01833279 16.56072966 92.35143883 9.875 92.875 C0.37482795 93.75132232 -7.89439221 95.83684325 -16.4375 100.1875 C-24.48943739 104.28409972 -32.78363356 103.87012863 -41.3125 101.3125 C-45.72605922 99.85850035 -50.01201967 98.19388429 -54.3125 96.4375 C-60.59688122 93.9298637 -66.70988001 92.83025561 -73.37109375 91.87109375 C-77.34453538 90.91729667 -79.80239837 89.51274578 -83 87 C-84.58368102 83.83263796 -84.42056706 81.4846985 -84 78 C-78.14552774 72.94386487 -73.35616518 72.87739725 -66 73 C-66.11398665 71.37419034 -66.24155659 69.74932843 -66.375 68.125 C-66.44460937 67.22007813 -66.51421875 66.31515625 -66.5859375 65.3828125 C-66.79568132 62.82058097 -66.79568132 62.82058097 -69 61 C-68.625 58.375 -68.625 58.375 -68 56 C-67.34 56 -66.68 56 -66 56 C-66.09346313 51.76376458 -66.19953913 47.52809149 -66.31738281 43.29248047 C-66.35569674 41.8511626 -66.39054543 40.40974832 -66.421875 38.96826172 C-66.46747446 36.89776114 -66.52547444 34.82792567 -66.5859375 32.7578125 C-66.63306885 30.88826904 -66.63306885 30.88826904 -66.68115234 28.98095703 C-66.69682309 25.88458224 -66.69682309 25.88458224 -69 24 C-68.625 21.375 -68.625 21.375 -68 19 C-67.34 19 -66.68 19 -66 19 C-66.14029419 16.8537974 -66.28738164 14.70803782 -66.4375 12.5625 C-66.51871094 11.36753906 -66.59992188 10.17257813 -66.68359375 8.94140625 C-66.67656114 6.11429756 -66.67656114 6.11429756 -68 5 C-68.04063832 3.33382885 -68.042721 1.66611905 -68 0 C-51.53257831 -8.99791754 -16.46742169 -8.99791754 0 0 Z M-48 -2 C-46.68 -1.34 -45.36 -0.68 -44 0 C-44 0.99 -44 1.98 -44 3 C-46.64 3.33 -49.28 3.66 -52 4 C-52 4.33 -52 4.66 -52 5 C-39.79 5 -27.58 5 -15 5 C-15 4.67 -15 4.34 -15 4 C-16.98 3.67 -18.96 3.34 -21 3 C-20.67 2.01 -20.34 1.02 -20 0 C-18.68 -0.66 -17.36 -1.32 -16 -2 C-26.56 -2 -37.12 -2 -48 -2 Z M-65 1 C-62.50494038 3.49505962 -61.32671112 3.35948376 -57.875 3.625 C-56.96492188 3.69976563 -56.05484375 3.77453125 -55.1171875 3.8515625 C-54.41851562 3.90054687 -53.71984375 3.94953125 -53 4 C-53 2.35 -53 0.7 -53 -1 C-57.46839215 -1.21278058 -60.82262526 -0.59138085 -65 1 Z M-15 -1 C-14.67 0.65 -14.34 2.3 -14 4 C-12.54077307 3.88590407 -11.08259402 3.75834456 -9.625 3.625 C-8.81289062 3.55539063 -8.00078125 3.48578125 -7.1640625 3.4140625 C-4.79665809 3.17107412 -4.79665809 3.17107412 -3 1 C-7.17737474 -0.59138085 -10.53160785 -1.21278058 -15 -1 Z M-51 1 C-51 1.33 -51 1.66 -51 2 C-49.35 2 -47.7 2 -46 2 C-46 1.67 -46 1.34 -46 1 C-47.65 1 -49.3 1 -51 1 Z M-64 8 C-64 11.63 -64 15.26 -64 19 C-46.42053802 25.27837928 -23.12401431 22.70478209 -5 20 C-3.71387324 18.94021067 -3.71387324 18.94021067 -3.90234375 16.49609375 C-3.91394531 15.48675781 -3.92554688 14.47742188 -3.9375 13.4375 C-3.95833333 11.625 -3.97916667 9.8125 -4 8 C-4.86044922 8.10610596 -4.86044922 8.10610596 -5.73828125 8.21435547 C-14.31355658 9.13987361 -22.84751019 9.152038 -31.4609375 9.13037109 C-33.99485252 9.12501089 -36.52859034 9.13034475 -39.0625 9.13671875 C-47.44010543 9.13979785 -55.66414297 8.95137499 -64 8 Z M-66 22 C-65.67 22.66 -65.34 23.32 -65 24 C-46.49808233 28.60416384 -21.50191767 28.60416384 -3 24 C-2.67 23.34 -2.34 22.68 -2 22 C-2.87906006 22.0707373 -3.75812012 22.14147461 -4.66381836 22.21435547 C-13.89362096 22.90027693 -23.06217533 23.15659493 -32.31616211 23.13037109 C-34.56435863 23.12499556 -36.81235621 23.13036586 -39.06054688 23.13671875 C-48.08818912 23.14041845 -57.00127645 22.78748921 -66 22 Z M-64 26 C-64 35.9 -64 45.8 -64 56 C-56.603212 57.70654201 -56.603212 57.70654201 -49.328125 58.44921875 C-47.84505859 58.51508179 -47.84505859 58.51508179 -46.33203125 58.58227539 C-45.31496094 58.61699951 -44.29789063 58.65172363 -43.25 58.6875 C-41.67025391 58.74828735 -41.67025391 58.74828735 -40.05859375 58.81030273 C-32.61325678 59.05415818 -25.4038514 58.85844055 -18 58 C-17.97077354 54.62501842 -17.95312532 51.25006979 -17.9375 47.875 C-17.92493164 46.44800781 -17.92493164 46.44800781 -17.91210938 44.9921875 C-17.89550392 40.20981513 -17.99462945 35.70228431 -19 31 C-15.04 31 -11.08 31 -7 31 C-7 32.98 -7 34.96 -7 37 C-6.01 37 -5.02 37 -4 37 C-4 33.37 -4 29.74 -4 26 C-5.92585938 26.24339111 -5.92585938 26.24339111 -7.890625 26.49169922 C-12.857332 27.04117268 -17.75699883 27.14478741 -22.75 27.1328125 C-24.09723145 27.13424759 -24.09723145 27.13424759 -25.47167969 27.13571167 C-27.35742259 27.13638761 -29.24316791 27.13457456 -31.12890625 27.13037109 C-33.99224138 27.12501451 -36.85541967 27.13033615 -39.71875 27.13671875 C-41.56250034 27.13605786 -43.40625059 27.13477649 -45.25 27.1328125 C-46.09401367 27.13483673 -46.93802734 27.13686096 -47.80761719 27.13894653 C-49.02433105 27.13421829 -49.02433105 27.13421829 -50.265625 27.12939453 C-50.96461914 27.12859894 -51.66361328 27.12780334 -52.38378906 27.12698364 C-56.26946531 26.93838367 -60.13354319 26.42960631 -64 26 Z M-16 33 C-16 33.66 -16 34.32 -16 35 C-13.69 35 -11.38 35 -9 35 C-9 34.34 -9 33.68 -9 33 C-11.31 33 -13.62 33 -16 33 Z M-0.125 36.9375 C-3.89434653 39.64159642 -6.41909534 39.68943019 -11 40 C-11 39.01 -11 38.02 -11 37 C-12.32 37 -13.64 37 -15 37 C-15 52.84 -15 68.68 -15 85 C-9.080625 85.020625 -3.16125 85.04125 2.9375 85.0625 C4.80784912 85.071604 6.67819824 85.08070801 8.60522461 85.09008789 C10.07926359 85.09300709 11.55330337 85.09555564 13.02734375 85.09765625 C13.79953247 85.10277222 14.57172119 85.10788818 15.36730957 85.11315918 C17.24525187 85.11346974 19.12309253 85.06233569 21 85 C23.7501511 82.2498489 22.50306053 73.26235855 22.56982422 69.41040039 C22.60633974 67.77382626 22.66076742 66.13754489 22.73388672 64.50219727 C23.39118902 54.920625 23.39118902 54.920625 20.12573242 46.21728516 C17.85404639 44.17368572 15.61762345 42.56706385 13 41 C11.62521484 39.96359375 11.62521484 39.96359375 10.22265625 38.90625 C9.50980469 38.4421875 8.79695313 37.978125 8.0625 37.5 C7.33160156 37.0153125 6.60070312 36.530625 5.84765625 36.03125 C2.91678644 34.39541569 2.38849539 34.64578362 -0.125 36.9375 Z M-66 58 C-66 58.66 -66 59.32 -66 60 C-55.2927667 63.08862499 -44.57246372 63.09043969 -33.5 63.125 C-32.43652344 63.12967285 -31.37304688 63.1343457 -30.27734375 63.13916016 C-29.26800781 63.13706543 -28.25867187 63.1349707 -27.21875 63.1328125 C-25.8565332 63.13112061 -25.8565332 63.13112061 -24.46679688 63.12939453 C-22.16903803 63.0088668 -20.20120519 62.64662008 -18 62 C-18.495 61.01 -18.495 61.01 -19 60 C-19.81976318 60.01047363 -20.63952637 60.02094727 -21.48413086 60.03173828 C-51.59611391 60.36544757 -51.59611391 60.36544757 -66 58 Z M-64 63 C-64 67.62 -64 72.24 -64 77 C-49.91434835 82.683684 -32.88191313 82.01788653 -18 80 C-18 75.05 -18 70.1 -18 65 C-24.6 65 -31.2 65 -38 65 C-37.34 66.65 -36.68 68.3 -36 70 C-35.92353835 72.3320802 -35.90856701 74.66845878 -36 77 C-38.31 76.34 -40.62 75.68 -43 75 C-42.46599103 71.08393425 -41.80330533 68.60661066 -40 65 C-47.92 64.34 -55.84 63.68 -64 63 Z M-40 69 C-40.33 70.65 -40.66 72.3 -41 74 C-40.01 74.33 -39.02 74.66 -38 75 C-38.33 73.02 -38.66 71.04 -39 69 C-39.33 69 -39.66 69 -40 69 Z M-80 78 C-81.74324087 80.50494008 -81.74324087 80.50494008 -82 83 C-77.31442505 88.56412025 -72.80096359 89.32107951 -66.00390625 90.53515625 C-59.73551071 91.74535516 -54.17534918 93.2331469 -48.30566406 95.71362305 C-38.35637119 99.91605097 -29.44620243 102.66276797 -18.89453125 98.484375 C-16.17352905 97.3232388 -13.53153654 96.05000158 -10.88671875 94.7265625 C-3.67195456 91.28849991 4.19587262 90.61955279 12.0625 89.875 C13.3609082 89.74544922 13.3609082 89.74544922 14.68554688 89.61328125 C16.78988844 89.40400971 18.89488124 89.20130332 21 89 C21 88.67 21 88.34 21 88 C19.91992676 87.98018066 18.83985352 87.96036133 17.72705078 87.93994141 C13.72746087 87.86398377 9.72823948 87.77525184 5.72900391 87.68261719 C3.99665593 87.64428659 2.26422726 87.60944094 0.53173828 87.578125 C-1.95569749 87.53256235 -4.44257566 87.47455497 -6.9296875 87.4140625 C-7.70682098 87.40251129 -8.48395447 87.39096008 -9.28463745 87.37905884 C-14.77225659 87.22774341 -14.77225659 87.22774341 -17 85 C-19.50952656 84.77827173 -21.91708744 84.67472682 -24.4296875 84.65625 C-25.17525909 84.6416272 -25.92083069 84.62700439 -26.68899536 84.61193848 C-29.0842747 84.56537548 -31.47947553 84.53129202 -33.875 84.5 C-60.52648411 84.14398963 -60.52648411 84.14398963 -68 80 C-67.34 78.35 -66.68 76.7 -66 75 C-71.03117981 75 -75.40134118 75.92736504 -80 78 Z M24 77 C23.67 80.3 23.34 83.6 23 87 C26.27773504 86.24849977 26.27773504 86.24849977 28 83 C27.6878236 80.35367713 27.6878236 80.35367713 27 78 C26.01 77.67 25.02 77.34 24 77 Z " fill="#FFFFFF" transform="translate(91,15)"/>
<path d="M0 0 C4.79006343 -0.59875793 7.20838682 -0.22389877 11.125 2.6875 C17.69927552 8.11127731 25.90085325 15.37017446 28 24 C27.48717949 28.51282051 27.48717949 28.51282051 26 30 C24.17014378 30.09962237 22.33647122 30.13080452 20.50390625 30.1328125 C19.38822266 30.13410156 18.27253906 30.13539062 17.12304688 30.13671875 C15.36057617 30.13091797 15.36057617 30.13091797 13.5625 30.125 C12.39138672 30.12886719 11.22027344 30.13273437 10.01367188 30.13671875 C8.89669922 30.13542969 7.77972656 30.13414063 6.62890625 30.1328125 C5.59838135 30.13168457 4.56785645 30.13055664 3.50610352 30.12939453 C1 30 1 30 -1 29 C-1.02891546 24.54168018 -1.04676981 20.08338431 -1.0625 15.625 C-1.07087891 14.35398437 -1.07925781 13.08296875 -1.08789062 11.7734375 C-1.09111328 10.56171875 -1.09433594 9.35 -1.09765625 8.1015625 C-1.10289307 6.98088379 -1.10812988 5.86020508 -1.11352539 4.70556641 C-1 2 -1 2 0 0 Z M2 2 C0.72138385 4.55723229 0.88663391 6.36737102 0.90234375 9.2265625 C0.90484131 10.15549316 0.90733887 11.08442383 0.90991211 12.04150391 C0.91901611 13.22405762 0.92812012 14.40661133 0.9375 15.625 C0.958125 19.37875 0.97875 23.1325 1 27 C8.92 27 16.84 27 25 27 C23.19106734 16.14640406 15.31539625 9.66189166 6.8671875 3.13671875 C4.93724836 1.73999818 4.93724836 1.73999818 2 2 Z " fill="#FFFFFF" transform="translate(81,64)"/>
<path d="M0 0 C3.58001401 1.1152533 5.71790279 2.9879801 8.55859375 5.41796875 C9.53441406 6.24425781 10.51023437 7.07054687 11.515625 7.921875 C12.25167969 8.55996094 12.98773438 9.19804688 13.74609375 9.85546875 C12.87109375 15.73046875 12.87109375 15.73046875 11.74609375 16.85546875 C8.27057043 17.36693761 6.90197953 16.9532168 3.88671875 15.0625 C2.45585938 13.87720703 2.45585938 13.87720703 0.99609375 12.66796875 C0.031875 11.89066406 -0.93234375 11.11335938 -1.92578125 10.3125 C-4.4077165 7.69314216 -5.09765414 6.41921889 -5.25390625 2.85546875 C-3.72778941 0.31194069 -2.97885037 -0.19101813 0 0 Z M-1.25390625 2.85546875 C-2.24390625 4.34046875 -2.24390625 4.34046875 -3.25390625 5.85546875 C0.70609375 8.82546875 4.66609375 11.79546875 8.74609375 14.85546875 C9.40609375 14.52546875 10.06609375 14.19546875 10.74609375 13.85546875 C10.38646477 11.00367404 9.85623519 9.96151491 7.75 7.93359375 C6.94433594 7.3303125 6.13867188 6.72703125 5.30859375 6.10546875 C4.10396484 5.18507812 4.10396484 5.18507812 2.875 4.24609375 C0.89083084 2.67317648 0.89083084 2.67317648 -1.25390625 2.85546875 Z " fill="#FFFFFF" transform="translate(95.25390625,52.14453125)"/>
<path d="M0 0 C4.21043181 1.40347727 5.03270553 3.77035051 7.046875 7.57421875 C8.42133428 11.07233027 8.15362124 13.46703496 7 17 C3.50875983 19.32749345 2.10777749 19.50299316 -2 19 C-4.4375 17.4375 -4.4375 17.4375 -6 15 C-6.11738809 8.89581929 -3.38791421 4.81308846 0 0 Z M0 5 C-2.5393228 8.41831915 -3.3636198 10.75776898 -3 15 C-0.67145537 16.19838209 -0.67145537 16.19838209 2 17 C2.99 16.34 3.98 15.68 5 15 C4.41825155 9.6913151 4.41825155 9.6913151 2 5 C1.34 5 0.68 5 0 5 Z " fill="#FFFFFF" transform="translate(50,51)"/>
<path d="M0 0 C0.99 0 1.98 0 3 0 C5.09350689 3.4019487 5.17942163 6.05272412 5 10 C2.625 10.625 2.625 10.625 0 11 C-0.66 10.34 -1.32 9.68 -2 9 C-1.45652174 2.91304348 -1.45652174 2.91304348 0 0 Z M1 4 C0.67 4.99 0.34 5.98 0 7 C0.99 7.33 1.98 7.66 3 8 C2.34 6.68 1.68 5.36 1 4 Z " fill="#FFFFFF" transform="translate(61,59)"/>
<path d="M0 0 C4.95 0 9.9 0 15 0 C15 0.99 15 1.98 15 3 C10.38 3 5.76 3 1 3 C0.67 2.01 0.34 1.02 0 0 Z " fill="#FFFFFF" transform="translate(83,82)"/>
<path d="M0 0 C4.95 0 9.9 0 15 0 C15 0.66 15 1.32 15 2 C10.05 2 5.1 2 0 2 C0 1.34 0 0.68 0 0 Z " fill="#FFFFFF" transform="translate(83,86)"/>
<path d="M0 0 C4.95 0 9.9 0 15 0 C15 0.66 15 1.32 15 2 C10.05 2 5.1 2 0 2 C0 1.34 0 0.68 0 0 Z " fill="#FFFFFF" transform="translate(83,79)"/>
<path d="M0 0 C2.31 0 4.62 0 7 0 C7 0.99 7 1.98 7 3 C4.36 3 1.72 3 -1 3 C-0.67 2.01 -0.34 1.02 0 0 Z " fill="#FFFFFF" transform="translate(84,71)"/>
</svg>
