<?xml version="1.0" encoding="UTF-8"?>
<svg version="1.1" xmlns="http://www.w3.org/2000/svg" width="128" height="128">
<path d="M0 0 C1.31419922 -0.01224609 2.62839844 -0.02449219 3.98242188 -0.03710938 C5.8609082 -0.04000977 5.8609082 -0.04000977 7.77734375 -0.04296875 C8.93355225 -0.04707764 10.08976074 -0.05118652 11.28100586 -0.05541992 C14.0625 0.1875 14.0625 0.1875 16.0625 2.1875 C17.06457388 5.13700047 17.17056432 7.83912606 17.125 10.9375 C17.11597656 11.73671875 17.10695312 12.5359375 17.09765625 13.359375 C17.08605469 13.96265625 17.07445312 14.5659375 17.0625 15.1875 C17.67246826 15.16131592 18.28243652 15.13513184 18.91088867 15.1081543 C21.69032758 15.00384281 24.46935439 14.93907018 27.25 14.875 C28.20970703 14.83310547 29.16941406 14.79121094 30.15820312 14.74804688 C34.69329353 14.6695851 37.30468124 14.71480117 41.21875 17.15625 C43.70993208 21.25192224 43.63046966 24.31114921 43.375 29 C43.35244141 29.78826172 43.32988281 30.57652344 43.30664062 31.38867188 C43.24804161 33.32243929 43.15836827 35.25522167 43.0625 37.1875 C41.7425 37.1875 40.4225 37.1875 39.0625 37.1875 C39.02491577 38.03513916 39.02491577 38.03513916 38.98657227 38.89990234 C38.87070044 41.45433742 38.74793463 44.0083955 38.625 46.5625 C38.58568359 47.45195313 38.54636719 48.34140625 38.50585938 49.2578125 C38.46396484 50.10859375 38.42207031 50.959375 38.37890625 51.8359375 C38.34224854 52.62145996 38.30559082 53.40698242 38.26782227 54.21630859 C38.0625 56.1875 38.0625 56.1875 37.0625 58.1875 C38.196875 58.125625 39.33125 58.06375 40.5 58 C49.60871861 58.06414591 56.61615781 61.89868121 63.0625 68.1875 C70.88641807 77.80021985 71.98047504 87.19497994 71.0625 99.1875 C69.26272248 107.78770268 63.8798748 114.87308285 56.68359375 119.82421875 C47.67848673 125.0017844 37.10792699 125.84101858 27 123.46875 C23.08993971 121.99055647 20.547186 120.6883406 17.60131836 117.64428711 C13.28789802 114.03963077 8.62427914 114.47726076 3.23046875 114.515625 C2.198116 114.50287537 1.16576324 114.49012573 0.10212708 114.47698975 C-3.18219683 114.44075365 -6.46549391 114.437981 -9.75 114.4375 C-13.05197677 114.41591375 -16.3537976 114.38751984 -19.65568542 114.35516357 C-21.70780756 114.33734431 -23.76001166 114.3271117 -25.81221008 114.32501221 C-26.73374374 114.32120544 -27.6552774 114.31739868 -28.60473633 114.31347656 C-29.41936844 114.31301331 -30.23400055 114.31255005 -31.07331848 114.31207275 C-32.9375 114.1875 -32.9375 114.1875 -33.9375 113.1875 C-34.14757783 111.65527392 -34.29462872 110.11433757 -34.41552734 108.57250977 C-34.49421051 107.58725815 -34.57289368 106.60200653 -34.65396118 105.5868988 C-34.73463837 104.50763626 -34.81531555 103.42837372 -34.8984375 102.31640625 C-34.98467377 101.19907608 -35.07091003 100.08174591 -35.15975952 98.93055725 C-36.11114904 86.33776401 -36.84635618 73.73294827 -37.5625 61.125 C-37.69766401 58.78188645 -37.83307973 56.43878741 -37.96875 54.09570312 C-38.29454956 48.45979823 -38.61731458 42.82372649 -38.9375 37.1875 C-40.2575 37.1875 -41.5775 37.1875 -42.9375 37.1875 C-43.07298815 34.45666098 -43.17179855 31.73258193 -43.25 29 C-43.29189453 28.23107422 -43.33378906 27.46214844 -43.37695312 26.66992188 C-43.46254713 22.68124114 -43.2097634 20.63511948 -41.09375 17.15625 C-36.46623757 14.26978185 -32.4586741 14.64216668 -27.125 14.875 C-25.65643555 14.90883789 -25.65643555 14.90883789 -24.15820312 14.94335938 C-21.74972545 15.00210273 -19.34440922 15.08417871 -16.9375 15.1875 C-16.94837646 14.57261719 -16.95925293 13.95773437 -16.97045898 13.32421875 C-16.97891846 12.51597656 -16.98737793 11.70773437 -16.99609375 10.875 C-17.00697021 10.07449219 -17.01784668 9.27398437 -17.02905273 8.44921875 C-16.58817292 -2.4422761 -8.54255265 0.00417729 0 0 Z M-11.9375 5.1875 C-11.9375 8.4875 -11.9375 11.7875 -11.9375 15.1875 C-4.0175 15.1875 3.9025 15.1875 12.0625 15.1875 C12.0625 11.8875 12.0625 8.5875 12.0625 5.1875 C10.40855883 3.53355883 8.45934587 4.05750317 6.1875 4.0546875 C5.20265625 4.05339844 4.2178125 4.05210938 3.203125 4.05078125 C1.64851563 4.05658203 1.64851563 4.05658203 0.0625 4.0625 C-0.97390625 4.05863281 -2.0103125 4.05476562 -3.078125 4.05078125 C-4.06296875 4.05207031 -5.0478125 4.05335937 -6.0625 4.0546875 C-6.97257812 4.05581543 -7.88265625 4.05694336 -8.8203125 4.05810547 C-10.9227848 3.95189991 -10.9227848 3.95189991 -11.9375 5.1875 Z M-37.36352539 20.59484863 C-39.80240929 24.10667473 -39.80240929 24.10667473 -38.9375 33.1875 C-13.1975 33.1875 12.5425 33.1875 39.0625 33.1875 C39.92740929 24.10667473 39.92740929 24.10667473 37.48852539 20.59484863 C34.2542719 18.71864311 31.98291533 18.67964869 28.24609375 18.66992188 C27.23073044 18.65940796 27.23073044 18.65940796 26.19485474 18.64868164 C23.96281613 18.63111176 21.73205094 18.64271927 19.5 18.65625 C17.94587969 18.65355476 16.39176103 18.64967207 14.83764648 18.64465332 C11.58268151 18.6387597 8.32815602 18.64731634 5.07324219 18.66601562 C0.90326456 18.68880572 -3.26568331 18.67568183 -7.43562317 18.65172577 C-10.64416243 18.63726376 -13.85245799 18.64187549 -17.06100464 18.65223694 C-18.59837974 18.65490314 -20.13577705 18.65163816 -21.67312622 18.64231873 C-23.82304385 18.63214571 -25.97129975 18.64766112 -28.12109375 18.66992188 C-29.34368896 18.67310425 -30.56628418 18.67628662 -31.82592773 18.67956543 C-34.94432202 18.99914125 -34.94432202 18.99914125 -37.36352539 20.59484863 Z M-33.9375 37.1875 C-33.28085167 54.26035664 -32.50982035 71.272653 -31.375 88.3125 C-31.23470937 90.45831265 -31.09473463 92.60414598 -30.95507812 94.75 C-30.62006465 99.89612411 -30.27868912 105.04176722 -29.9375 110.1875 C-16.7375 110.1875 -3.5375 110.1875 10.0625 110.1875 C8.7425 106.5575 7.4225 102.9275 6.0625 99.1875 C4.96673922 90.40529964 5.10771313 81.78294692 10.0625 74.1875 C10.46895752 73.72029541 10.87541504 73.25309082 11.29418945 72.77172852 C15.62836396 67.53172008 15.83411556 62.89599247 15.875 56.25 C15.90013672 55.27998047 15.92527344 54.30996094 15.95117188 53.31054688 C16.00966344 50.93578939 16.04621949 48.56285868 16.0625 46.1875 C17.3825 46.1875 18.7025 46.1875 20.0625 46.1875 C20.0625 51.7975 20.0625 57.4075 20.0625 63.1875 C26.4975 60.7125 26.4975 60.7125 33.0625 58.1875 C33.2275 56.57875 33.3925 54.97 33.5625 53.3125 C33.6553125 52.40757813 33.748125 51.50265625 33.84375 50.5703125 C34.1316543 46.11807808 34.0625 41.64903339 34.0625 37.1875 C11.6225 37.1875 -10.8175 37.1875 -33.9375 37.1875 Z M20.0625 68.1875 C21.50825267 71.5609229 23.2674086 73.80345146 26.0625 76.1875 C28.13855299 76.81359192 28.13855299 76.81359192 30.0625 77.1875 C30.35382813 76.61 30.64515625 76.0325 30.9453125 75.4375 C34.22948975 69.48880158 34.22948975 69.48880158 38 68.125 C42.88590827 69.82011103 44.65111933 73.80053034 47.0625 78.1875 C47.44921875 78.88359375 47.8359375 79.5796875 48.234375 80.296875 C49.0625 82.1875 49.0625 82.1875 49.0625 85.1875 C48.0725 85.1875 47.0825 85.1875 46.0625 85.1875 C44.23828125 82.5625 44.23828125 82.5625 42.375 79.1875 C41.75238281 78.07375 41.12976563 76.96 40.48828125 75.8125 C40.01777344 74.94625 39.54726562 74.08 39.0625 73.1875 C35.89748273 73.86239954 35.89748273 73.86239954 34.8125 76.5 C33.82792037 80.02807699 34.45605649 81.69095393 35.7890625 84.98046875 C37.50381951 87.95236357 39.73405922 90.04696796 42.1875 92.4375 C43.55261719 93.77554688 43.55261719 93.77554688 44.9453125 95.140625 C45.64398438 95.81609375 46.34265625 96.4915625 47.0625 97.1875 C48.83956209 94.52190687 49.93798273 92.1594385 51.0625 89.1875 C53.7025 89.5175 56.3425 89.8475 59.0625 90.1875 C58.4025 92.1675 57.7425 94.1475 57.0625 96.1875 C57.3925 96.5175 57.7225 96.8475 58.0625 97.1875 C58.32543056 101.21910191 58.35654844 102.74642734 56.0625 106.1875 C57.0525 107.1775 58.0425 108.1675 59.0625 109.1875 C62.08617493 108.51738327 62.08617493 108.51738327 63.1953125 106.515625 C67.21292488 98.10078331 68.42400597 90.70943296 65.5 81.6875 C62.14246701 73.24102328 57.05195334 67.81536172 48.734375 64.09765625 C38.6889757 60.67575854 28.78756333 62.07995567 20.0625 68.1875 Z M15.0625 73.1875 C14.24497697 74.76824564 13.43368003 76.35221223 12.625 77.9375 C12.17253906 78.81921875 11.72007813 79.7009375 11.25390625 80.609375 C8.12878083 87.37194148 8.35634791 93.69733693 10.625 100.6875 C13.9496324 109.08045311 19.01949563 114.12233785 26.94921875 118.27734375 C34.02730483 121.3257616 41.38411288 121.11509683 48.5 118.3125 C51.27529493 117.10972371 53.52901545 115.8764897 56.0625 114.1875 C54.47014294 110.2789872 52.44323474 107.72305106 49.0625 105.1875 C45.68716258 104.76881343 42.444882 104.89195206 39.0625 105.1875 C40.0625 102.1875 40.0625 102.1875 42.125 101 C42.764375 100.731875 43.40375 100.46375 44.0625 100.1875 C43.63428955 99.75928955 43.2060791 99.3310791 42.76489258 98.88989258 C32.83203125 88.95703125 32.83203125 88.95703125 30.86694336 86.99145508 C29.34736866 85.47229157 27.82621022 83.95471246 26.3046875 82.4375 C24.89692582 81.02483322 23.49829612 79.60294408 22.11328125 78.16796875 C21.53964844 77.57628906 20.96601562 76.98460938 20.375 76.375 C19.79363281 75.77042969 19.21226563 75.16585937 18.61328125 74.54296875 C17.15480108 72.96813276 17.15480108 72.96813276 15.0625 73.1875 Z M51.0625 97.1875 C50.4025 97.8475 49.7425 98.5075 49.0625 99.1875 C49.7225 99.8475 50.3825 100.5075 51.0625 101.1875 C52.0525 101.1875 53.0425 101.1875 54.0625 101.1875 C53.7325 99.8675 53.4025 98.5475 53.0625 97.1875 C52.4025 97.1875 51.7425 97.1875 51.0625 97.1875 Z " fill="#FFFFFF" transform="translate(49.9375,1.8125)"/>
<path d="M0 0 C1.32 0 2.64 0 4 0 C4.97543668 4.14325036 5.19622571 8.11311631 5.31640625 12.36328125 C5.33718735 13.07292526 5.35796844 13.78256927 5.37937927 14.51371765 C5.42251004 16.01730768 5.46356778 17.52095842 5.50268555 19.0246582 C5.5613172 21.2672591 5.62674433 23.5095768 5.69335938 25.75195312 C5.97111796 35.50333561 6.05213027 45.24502008 6 55 C4.0625 55.5625 4.0625 55.5625 2 56 C0.12783666 54.12783666 0.75778134 50.96098458 0.68359375 48.45703125 C0.66276733 47.78463409 0.64194092 47.11223694 0.6204834 46.41946411 C0.55418337 44.21726123 0.495505 42.01493585 0.4375 39.8125 C0.39465578 38.3086739 0.35176829 36.80484903 0.30883789 35.30102539 C-0.01405828 23.53280444 -0.11331735 11.77241381 0 0 Z " fill="#FFFFFF" transform="translate(30,48)"/>
<path d="M0 0 C1.32 0 2.64 0 4 0 C4 18.15 4 36.3 4 55 C2.02 55.495 2.02 55.495 0 56 C0 37.52 0 19.04 0 0 Z " fill="#FFFFFF" transform="translate(48,48)"/>
<path d="M0 0 C1.32 0 2.64 0 4 0 C3.39254603 4.85963179 1.27241033 8.7405518 -1 13 C1.31 13 3.62 13 6 13 C6 12.01 6 11.02 6 10 C6.99 9.67 7.98 9.34 9 9 C11.5625 11.25 11.5625 11.25 14 14 C14 16.65923246 13.2306065 17.68154341 11.6875 19.8125 C10 21 10 21 7.8125 20.6875 C7.214375 20.460625 6.61625 20.23375 6 20 C6 19.01 6 18.02 6 17 C4.95199219 17.03480469 4.95199219 17.03480469 3.8828125 17.0703125 C2.97273438 17.08835937 2.06265625 17.10640625 1.125 17.125 C0.22007813 17.14820312 -0.68484375 17.17140625 -1.6171875 17.1953125 C-4 17 -4 17 -6 15 C-5.88628006 9.31400311 -3.97781561 4.12792186 0 0 Z " fill="#FFFFFF" transform="translate(73,90)"/>
</svg>
