<?xml version="1.0" encoding="UTF-8"?>
<svg version="1.1" xmlns="http://www.w3.org/2000/svg" width="128" height="128">
<path d="M0 0 C1.8423273 0.05021289 3.6847859 0.09583117 5.52734375 0.13671875 C10.0214925 0.24640893 14.50929468 0.41862567 19 0.625 C20.29544806 3.17522507 21.58644368 5.72754538 22.875 8.28125 C23.42220703 9.35681152 23.42220703 9.35681152 23.98046875 10.45410156 C26.47692902 15.41297945 28.47142672 20.27499351 30 25.625 C31.98 25.295 33.96 24.965 36 24.625 C36.80710044 27.43491666 37.22694486 29.05055585 36.13549805 31.81323242 C35.68215088 32.52842041 35.22880371 33.2436084 34.76171875 33.98046875 C34.27123047 34.76744141 33.78074219 35.55441406 33.27539062 36.36523438 C32.75138672 37.17283203 32.22738281 37.98042969 31.6875 38.8125 C31.17509766 39.63169922 30.66269531 40.45089844 30.13476562 41.29492188 C26.37627302 47.24872698 26.37627302 47.24872698 24 49.625 C20.27198474 49.44246065 16.63156552 48.45399004 13 47.625 C12.35047363 47.47724121 11.70094727 47.32948242 11.03173828 47.17724609 C8.97437555 46.69961789 6.92438812 46.19819133 4.875 45.6875 C4.21153564 45.53007324 3.54807129 45.37264648 2.86450195 45.21044922 C0.9921875 44.72265625 0.9921875 44.72265625 -2 43.625 C-2.33 42.635 -2.66 41.645 -3 40.625 C-1.625 39.125 -1.625 39.125 0 37.625 C0.66 37.625 1.32 37.625 2 37.625 C0.35 34.655 -1.3 31.685 -3 28.625 C-6.13497131 31.59127331 -8.63105882 34.73193088 -11.125 38.25 C-14.80555556 43.43055556 -14.80555556 43.43055556 -17 45.625 C-22.30951604 45.08202128 -26.53522454 40.92061853 -30.6875 37.875 C-31.56728516 37.25367188 -32.44707031 36.63234375 -33.35351562 35.9921875 C-34.18947266 35.38117187 -35.02542969 34.77015625 -35.88671875 34.140625 C-36.65201904 33.58665039 -37.41731934 33.03267578 -38.20581055 32.46191406 C-40.43769247 30.17688486 -40.88681098 28.80144452 -41 25.625 C-40.04711914 23.83911133 -40.04711914 23.83911133 -38.53515625 22.20703125 C-37.70467773 21.28374023 -37.70467773 21.28374023 -36.85742188 20.34179688 C-36.26509766 19.71337891 -35.67277344 19.08496094 -35.0625 18.4375 C-33.92614943 17.19605342 -32.79207047 15.95252409 -31.66015625 14.70703125 C-31.05187988 14.06894531 -30.44360352 13.43085938 -29.81689453 12.7734375 C-27.89757619 10.63918139 -27.89757619 10.63918139 -26.47607422 7.9296875 C-20.21520502 -2.41037173 -10.78255592 -0.51033708 0 0 Z M-17 5.625 C-22.87441175 12.4819646 -28.69408348 19.31143939 -34 26.625 C-29.76790414 31.13013431 -25.11304141 35.139292 -20 38.625 C-19.34 38.625 -18.68 38.625 -18 38.625 C-16.58499741 37.11081041 -16.58499741 37.11081041 -15.1796875 35.125 C-14.64472656 34.403125 -14.10976563 33.68125 -13.55859375 32.9375 C-13.00300781 32.174375 -12.44742188 31.41125 -11.875 30.625 C-11.31167969 29.861875 -10.74835937 29.09875 -10.16796875 28.3125 C-8.77285057 26.42081434 -7.38388029 24.52491415 -6 22.625 C-7.25881488 19.97281758 -8.53114044 17.32876131 -9.8125 14.6875 C-10.16892578 13.93275391 -10.52535156 13.17800781 -10.89257812 12.40039062 C-11.24384766 11.68173828 -11.59511719 10.96308594 -11.95703125 10.22265625 C-12.43619995 9.22504272 -12.43619995 9.22504272 -12.92504883 8.20727539 C-13.99372259 6.2898616 -13.99372259 6.2898616 -17 5.625 Z M-8 5.625 C-6.528585 10.039245 -5.21534127 13.32330314 -2.99609375 17.28515625 C-2.42052734 18.32607422 -1.84496094 19.36699219 -1.25195312 20.43945312 C-0.03972527 22.60945842 1.17382244 24.7787269 2.38867188 26.94726562 C2.96294922 27.98689453 3.53722656 29.02652344 4.12890625 30.09765625 C4.65556885 31.03875244 5.18223145 31.97984863 5.72485352 32.94946289 C6.9630316 35.54743219 7.57824296 37.79026592 8 40.625 C9.5811292 41.13192692 11.16501383 41.63026443 12.75 42.125 C13.63171875 42.4034375 14.5134375 42.681875 15.421875 42.96875 C18.20267529 43.78945285 18.20267529 43.78945285 22 43.625 C23.88890463 41.64321643 23.88890463 41.64321643 25.375 39 C25.91898438 38.14148437 26.46296875 37.28296875 27.0234375 36.3984375 C28.36495436 32.58852963 27.62951626 31.33000539 26 27.625 C25.63277832 26.78791504 25.26555664 25.95083008 24.88720703 25.08837891 C23.57445149 22.1302627 22.22893616 19.18951793 20.875 16.25 C19.26625 12.74375 17.6575 9.2375 16 5.625 C8.08 5.625 0.16 5.625 -8 5.625 Z " fill="#FFFFFF" transform="translate(66,5.375)"/>
<path d="M0 0 C1.76098633 2.49682617 1.76098633 2.49682617 3.33203125 5.79296875 C4.18764648 7.57477539 4.18764648 7.57477539 5.06054688 9.39257812 C5.34792725 10.01592041 5.63530762 10.6392627 5.93139648 11.28149414 C6.80618547 13.17384038 7.7117918 15.04881667 8.62304688 16.92382812 C13.64026109 27.50552346 13.64026109 27.50552346 13 33 C12.07913455 35.54721408 11.12003429 37.89421746 9.97265625 40.33203125 C9.66428329 41.00924728 9.35591034 41.68646332 9.03819275 42.38420105 C8.05677058 44.5319564 7.05965987 46.67201363 6.0625 48.8125 C5.39549944 50.26973187 4.72947338 51.72741021 4.06445312 53.18554688 C-0.80461374 63.80461374 -0.80461374 63.80461374 -2 65 C-4.07262076 65.08767112 -6.14820294 65.10695873 -8.22265625 65.09765625 C-9.48271484 65.09443359 -10.74277344 65.09121094 -12.04101562 65.08789062 C-13.38151109 65.07953403 -14.72200588 65.07106907 -16.0625 65.0625 C-17.40689942 65.0574866 -18.7513006 65.05292342 -20.09570312 65.04882812 C-23.39717941 65.03699488 -26.69856803 65.02050971 -30 65 C-30 66.65 -30 68.3 -30 70 C-31.98 70.495 -31.98 70.495 -34 71 C-37.87573142 66.22896284 -41.56253108 61.34741368 -45 56.25 C-45.598125 55.36828125 -46.19625 54.4865625 -46.8125 53.578125 C-48 51 -48 51 -48.0546875 48.6484375 C-46.46310997 44.65180949 -43.86317846 41.65824911 -41.125 38.375 C-40.58230469 37.70726562 -40.03960937 37.03953125 -39.48046875 36.3515625 C-37.09442661 33.43464057 -34.69951724 30.63360228 -32 28 C-31.01 28.33 -30.02 28.66 -29 29 C-28.67 30.98 -28.34 32.96 -28 35 C-24.7 34.34 -21.4 33.68 -18 33 C-18.66128906 31.83082031 -19.32257813 30.66164063 -20.00390625 29.45703125 C-20.85752125 27.90926779 -21.71034466 26.36106758 -22.5625 24.8125 C-23.00013672 24.04357422 -23.43777344 23.27464844 -23.88867188 22.48242188 C-24.29794922 21.73154297 -24.70722656 20.98066406 -25.12890625 20.20703125 C-25.51119385 19.5210083 -25.89348145 18.83498535 -26.28735352 18.12817383 C-27.23653652 15.29363179 -27.03365331 13.79785224 -26 11 C-24.03808594 9.31494141 -24.03808594 9.31494141 -21.484375 7.8515625 C-20.56269531 7.32175781 -19.64101562 6.79195312 -18.69140625 6.24609375 C-17.72074219 5.71113281 -16.75007813 5.17617188 -15.75 4.625 C-14.79480469 4.06683594 -13.83960938 3.50867187 -12.85546875 2.93359375 C-4.37337912 -1.84421752 -4.37337912 -1.84421752 0 0 Z M-5 5 C-6.78559334 5.70817028 -6.78559334 5.70817028 -8.6953125 6.87109375 C-9.76845703 7.48500977 -9.76845703 7.48500977 -10.86328125 8.11132812 C-11.60964844 8.54896484 -12.35601562 8.98660156 -13.125 9.4375 C-13.87910156 9.87126953 -14.63320312 10.30503906 -15.41015625 10.75195312 C-17.27757134 11.82748966 -19.13932697 12.91284139 -21 14 C-18.86315238 21.03022868 -15.83879484 27.45151525 -11 33 C-7.43160425 34.26474786 -4.64720031 33.77085937 -1 33 C0.54079697 32.82547607 2.08242847 32.6580727 3.625 32.5 C5.295625 32.2525 5.295625 32.2525 7 32 C8.27805807 28.16582578 7.48299552 27.28563812 5.76171875 23.7109375 C5.27123047 22.68742187 4.78074219 21.66390625 4.27539062 20.609375 C3.75138672 19.54203125 3.22738281 18.4746875 2.6875 17.375 C1.91889648 15.76238281 1.91889648 15.76238281 1.13476562 14.1171875 C-1.01082827 8.72649901 -1.01082827 8.72649901 -5 5 Z M-18.2109375 38.81640625 C-21 39 -21 39 -24.2890625 38.71484375 C-27.7556019 38.43194226 -30.58823403 38.29396617 -34 39 C-37.40495963 41.90904209 -39.72979924 45.15917696 -42 49 C-41.401875 50.0725 -40.80375 51.145 -40.1875 52.25 C-39.85105469 52.85328125 -39.51460937 53.4565625 -39.16796875 54.078125 C-38.78253906 54.71234375 -38.39710937 55.3465625 -38 56 C-37.62230469 56.69158203 -37.24460937 57.38316406 -36.85546875 58.09570312 C-35.07465809 60.30901112 -35.07465809 60.30901112 -31.90551758 60.45410156 C-30.66439209 60.4331543 -29.4232666 60.41220703 -28.14453125 60.390625 C-27.48289474 60.38496521 -26.82125824 60.37930542 -26.13957214 60.37347412 C-24.02980668 60.35111247 -21.92175048 60.30092371 -19.8125 60.25 C-18.38088394 60.2299344 -16.9492412 60.21168372 -15.51757812 60.1953125 C-12.01116485 60.15125069 -8.50574928 60.08222777 -5 60 C-3.49394598 56.71106997 -1.99619468 53.41842554 -0.5 50.125 C-0.07074219 49.18785156 0.35851562 48.25070313 0.80078125 47.28515625 C1.20683594 46.38925781 1.61289063 45.49335937 2.03125 44.5703125 C2.40830078 43.74289551 2.78535156 42.91547852 3.17382812 42.06298828 C4.12392316 40.06093651 4.12392316 40.06093651 4 38 C-3.46475089 37.90192298 -10.79304875 37.9301983 -18.2109375 38.81640625 Z " fill="#FFFFFF" transform="translate(115,51)"/>
<path d="M0 0 C1.18847656 2.09130859 1.18847656 2.09130859 2.140625 4.6484375 C2.48867188 5.57140625 2.83671875 6.494375 3.1953125 7.4453125 C3.54335938 8.41210938 3.89140625 9.37890625 4.25 10.375 C4.61351562 11.3340625 4.97703125 12.293125 5.3515625 13.28125 C6.90340004 17.47004456 8 20.47941892 8 25 C5.36 24.67 2.72 24.34 0 24 C-0.28875 24.9075 -0.5775 25.815 -0.875 26.75 C-1.76841716 29.33098291 -2.75227117 31.58842326 -4 34 C-3.37432129 33.99476318 -2.74864258 33.98952637 -2.10400391 33.98413086 C0.72232057 33.96338382 3.54862905 33.95034714 6.375 33.9375 C7.35984375 33.92912109 8.3446875 33.92074219 9.359375 33.91210938 C10.77089844 33.90727539 10.77089844 33.90727539 12.2109375 33.90234375 C13.51490479 33.89448853 13.51490479 33.89448853 14.84521484 33.88647461 C17 34 17 34 19 35 C19 44.57 19 54.14 19 64 C14.13877184 64.20756957 9.29305237 64.3862303 4.4309082 64.49438477 C2.78063749 64.53946707 1.1307228 64.60075755 -0.51831055 64.67895508 C-14.08160533 65.30570956 -14.08160533 65.30570956 -18.40185547 62.36523438 C-20.25945076 60.01646577 -21.60234928 57.64683829 -23 55 C-24.31684622 53.10044308 -25.65101487 51.21280712 -27 49.3359375 C-28.33758106 47.3518153 -29.67087709 45.36479805 -31 43.375 C-31.69222656 42.37726563 -32.38445313 41.37953125 -33.09765625 40.3515625 C-37.9273084 33.09268174 -37.9273084 33.09268174 -38.24609375 28.30078125 C-36.65619519 24.08929447 -34.56006272 20.54308106 -32.0625 16.8125 C-31.15613196 15.42410313 -30.25113783 14.03480818 -29.34765625 12.64453125 C-28.74449585 11.73731323 -28.74449585 11.73731323 -28.12915039 10.81176758 C-26.95425272 8.92659664 -25.96315365 7.00043845 -25 5 C-25.99 4.67 -26.98 4.34 -28 4 C-27.67 2.35 -27.34 0.7 -27 -1 C-23.25085209 -1.22616462 -19.50077551 -1.42782662 -15.75 -1.625 C-14.68652344 -1.68945312 -13.62304688 -1.75390625 -12.52734375 -1.8203125 C-10.99013672 -1.89765625 -10.99013672 -1.89765625 -9.421875 -1.9765625 C-8.47924805 -2.02893066 -7.53662109 -2.08129883 -6.56542969 -2.13525391 C-3.73848825 -1.98621265 -2.29493456 -1.65190338 0 0 Z M-18 4 C-18.639375 5.36125 -19.27875 6.7225 -19.9375 8.125 C-21.56511954 11.43213419 -23.31831303 14.54943102 -25.37109375 17.60546875 C-25.78302979 18.2195459 -26.19496582 18.83362305 -26.61938477 19.46630859 C-27.44664041 20.68266232 -28.28676122 21.89037982 -29.14038086 23.08837891 C-30.8080779 25.54114196 -31.97539096 27.39560197 -32.09765625 30.3984375 C-30.41646384 34.38304299 -28.04357234 37.78477453 -25.5625 41.3125 C-25.05912109 42.05306641 -24.55574219 42.79363281 -24.03710938 43.55664062 C-22.1212648 46.35843231 -22.1212648 46.35843231 -20 49 C-19.34 49 -18.68 49 -18 49 C-16.08217368 45.33393878 -14.16595121 41.66704149 -12.25 38 C-11.71117188 36.97003906 -11.17234375 35.94007812 -10.6171875 34.87890625 C-10.08867187 33.86699219 -9.56015625 32.85507813 -9.015625 31.8125 C-8.49806641 30.8225 -7.98050781 29.8325 -7.44726562 28.8125 C-6.1695551 26.32949979 -4.94519753 23.82849486 -3.734375 21.3125 C-2 18 -2 18 0 17 C-0.47859241 15.39566191 -0.95789558 13.79153584 -1.4375 12.1875 C-1.70433594 11.29417969 -1.97117187 10.40085937 -2.24609375 9.48046875 C-2.80387873 7.64526945 -3.39344575 5.81966274 -4 4 C-8.62 4 -13.24 4 -18 4 Z M-7 39 C-8.37257477 41.21954651 -9.72259151 43.44835409 -11.0625 45.6875 C-11.45244141 46.31333984 -11.84238281 46.93917969 -12.24414062 47.58398438 C-13.98345399 50.52388572 -15.03724907 52.43670291 -14.80859375 55.89453125 C-14.18129852 57.95423246 -14.18129852 57.95423246 -13 59 C-11.00035018 59.08758003 -8.9976389 59.10696576 -6.99609375 59.09765625 C-5.17368164 59.09282227 -5.17368164 59.09282227 -3.31445312 59.08789062 C-2.03505859 59.07951172 -0.75566406 59.07113281 0.5625 59.0625 C2.48739258 59.05573242 2.48739258 59.05573242 4.45117188 59.04882812 C7.6341342 59.03699555 10.81707274 59.01905944 14 59 C14 52.73 14 46.46 14 40 C10.91651718 39.2291293 8.94762714 38.87918464 5.890625 38.90234375 C4.75947266 38.90717773 4.75947266 38.90717773 3.60546875 38.91210938 C2.82816406 38.92048828 2.05085938 38.92886719 1.25 38.9375 C0.45722656 38.94201172 -0.33554687 38.94652344 -1.15234375 38.95117188 C-3.10159508 38.96291435 -5.05080738 38.98084854 -7 39 Z " fill="#FFFFFF" transform="translate(38,52)"/>
</svg>
